<?xml version="1.0" encoding="UTF-8" standalone="no"?>
<!-- Created with Inkscape (http://www.inkscape.org/) -->

<svg
   width="297mm"
   height="210mm"
   viewBox="0 0 1122.5197 793.70081"
   version="1.1"
   id="svg1"
   inkscape:version="1.4 (e7c3feb100, 2024-10-09)"
   sodipodi:docname="Samakal_Logo_vector.svg"
   xmlns:inkscape="http://www.inkscape.org/namespaces/inkscape"
   xmlns:sodipodi="http://sodipodi.sourceforge.net/DTD/sodipodi-0.dtd"
   xmlns="http://www.w3.org/2000/svg"
   xmlns:svg="http://www.w3.org/2000/svg">
  <sodipodi:namedview
     id="namedview1"
     pagecolor="#ffffff"
     bordercolor="#000000"
     borderopacity="0.25"
     inkscape:showpageshadow="2"
     inkscape:pageopacity="0.0"
     inkscape:pagecheckerboard="0"
     inkscape:deskcolor="#d1d1d1"
     inkscape:document-units="mm"
     inkscape:zoom="0.35769572"
     inkscape:cx="662.57433"
     inkscape:cy="389.99628"
     inkscape:window-width="1920"
     inkscape:window-height="1012"
     inkscape:window-x="0"
     inkscape:window-y="0"
     inkscape:window-maximized="1"
     inkscape:current-layer="layer1" />
  <defs
     id="defs1">
    <clipPath
       clipPathUnits="userSpaceOnUse"
       id="clipPath2">
      <path
         d="M 0,1080 H 1920 V 0 H 0 Z"
         transform="translate(-993.4744,-626.64422)"
         id="path2" />
    </clipPath>
  </defs>
  <g
     inkscape:label="Layer 1"
     inkscape:groupmode="layer"
     id="layer1">
    <g
       id="g40"
       transform="matrix(0.56248458,0,0,0.56248458,19.148843,-692.1057)">
      <path
         id="path1"
         clip-path="url(#clipPath2)"
         style="fill:#010101;fill-opacity:1;fill-rule:nonzero;stroke:none"
         d="m 50.139608,28.421284 c -2.21525,-0.244875 -3.803523,-1.706813 -3.436523,-6.257813 0.838,-10.408 -4.927512,-10.805461 -12.874512,-10.772461 -55.297,0.234 -110.594094,0.163933 -165.892093,0.106933 -3.36,-0.004 -7.15791,1.59043 -11.00391,-2.0595701 5.613,-6.789 11.98121,-9.26944555 20.40821,-9.23144555 40.884996,0.186 81.77169,-0.092543 122.65869031249,-0.20654297499 C 5.2734703,2.8833844 10.216381,1.6772047 17.482381,-0.65879533 10.262381,-3.5197953 5.7186969,-6.5299322 0.03169688,-5.7989322 -49.975303,-24.941932 -94.731045,-52.215216 -135.87504,-91.662216 c 50.095995,-0.584 95.044077,-9.578474 138.5800768,-24.313474 43.7900002,-14.82 85.1432882,-35.30825 123.4672932,-62.05225 3.092,3.924 1.97939,7.22313 1.98339,10.28613 0.039,34.382 -0.0756,68.765513 0.19336,103.145513 0.035,4.498 -3.296,12.679914 7.292,10.461914 19.717,-4.132 36.5577,-13.342129 48.9917,-29.307129 7.74,-9.937 5.4969,-17.870458 -5.9751,-23.689458 -8.286,-4.202 -17.22833,-6.62976 -26.46533,-8.00976 -5.636,-0.842 -7.21583,-3.40633 -3.09083,-8.36133 10.123,-12.16 23.24584,-19.61607 37.90284,-24.74707 4.474,-1.567 7.92716,0.50166 11.38916,3.22266 21.049,16.547 26.68546,53.339071 11.79346,75.476071 -18.101,26.905 -41.9176,47.724908 -68.9546,65.0039083 -25.691,16.4179997 -53.610994,27.4598057 -83.895994,31.9248057 -2.139,0.3155 -4.981528,1.287844 -7.196778,1.042969 z M -226.99126,28.305561 c -3.21234,0.09398 -5.8564,-0.926684 -5.1709,-5.731934 1.751,-12.274 -6.28205,-10.901297 -13.83105,-10.904297 -61.824,-0.024 -123.64866,-0.06591 -185.47266,-0.23291 -3.758,-0.01 -8.29321,2.142238 -11.61621,-3.030762 4.168,-2.927 6.96493,-7.6630744 12.58593,-7.9760744 15.142,-0.844 28.78284,-6.89693 42.50684,-12.3779296 23.515,-9.393 44.76387,-22.250751 59.94287,-43.218751 1.97,-2.721 5.7944,-5.822032 3.4834,-9.832032 -1.996,-3.465 -5.93098,-1.0655 -8.95898,-1.3125 -11.581,-0.945 -23.04476,-2.143512 -34.32276,-5.374512 -29.999,-8.596 -45.96028,-33.474469 -39.46728,-62.251469 5.533,-24.525 34.33361,-40.95265 62.45361,-35.63965 27.97,5.284 46.7533,22.28791 58.9043,47.10791 3.93,8.026 8.2058,11.76247 17.1958,7.77247 4.176,-1.853 8.9381,-2.3479 13.3711,-3.6709 38.42,-11.462 71.06188,-33.20166 102.73388,-58.34766 1.211,2.133 2.00045,2.8737 2.00245,3.6167 0.131,55.771 0.15095,111.541991 0.35595,167.3129914 0.019,5.39600002 -2.42704,8.5590276 -6.66504,11.2280276 -20.445,12.875 -43.26842,18.631071 -66.73242,22.497071 -1.095,0.1805 -2.22805,0.334883 -3.29883,0.366211 z M 605.7695,28.135639 c -3.20357,-0.213516 -5.62582,-1.827024 -4.87207,-6.249024 1.974,-11.59 -5.52519,-10.26709 -12.59619,-10.26709 -76.218,-0.003 -152.43579,-0.05096 -228.65479,-0.08496 -7.603,-0.004 -15.2084,-0.0015 -23.8374,-0.0015 5.476,-10.76800049 13.43302,-11.29697343 21.99902,-11.27197343 46.94,0.136 93.8803,0.0806367 140.8213,0.0776367 30.658,-0.002 61.31661,7.5781e-4 91.97461,-0.0732422 4.811,-0.011 10.40286,1.62214833 10.23486,-6.92285167 -0.387,-19.7680004 -0.12305,-39.5470214 -0.12305,-60.5200214 -12.792,11.622 -23.74938,22.628903 -35.79638,32.274903 -17.965,14.384 -21.67001,13.623262 -35.83301,-3.906738 -3.497,-4.328 -7.12442,-8.62691 -10.00342,-13.35791 -4.088,-6.72 -7.09394,-6.577063 -12.21094,-0.539063 -10.785,12.725 -21.8558,25.34738 -36.4248,34.08838 -8.065,4.838 -16.262,8.8575976 -26.146,5.037598 -29.863,-11.542 -54.49283,-29.741494 -71.17383,-57.354494 -14.381,-23.806 -9.7535,-43.016519 13.2085,-58.624519 19.203,-13.053 41.01343,-19.0743 63.56543,-22.9043 21.664,-3.679 28.20037,0.33129 35.27637,21.84229 1.585,4.821 2.65244,9.83415 3.60644,14.82715 0.396,2.078 2.47422,4.39278 0.30322,6.44678 -2.837,2.685 -5.03836,-0.013 -7.31836,-1.292 -11.205,-6.291 -23.066,-9.76122 -36,-7.80322 -10.876,1.647 -13.43439,7.1634 -7.50439,16.1294 2.547,3.85 5.16889,7.99011 8.71289,10.78711 30.709,24.234 39.77387,27.020066 65.08887,-4.231934 9.467,-11.687006 18.13421,-24.019246 27.74121,-36.823246 5.982,12.744 9.62457,24.77314 17.05957,35.140141 5.924,8.259 12.19811,10.102648 21.28711,5.639648 17.242,-8.467009 32.08474,-20.232659 46.76074,-32.368659 19.809,-16.381 37.51599,-35.04023 58.08399,-55.36523 0,60.384 -0.0412,117.346622 0.0718,174.3076219 0.009,4.87799997 -2.31581,7.7194221 -6.04981,10.1074221 -20.735,13.262 -43.97146,19.163176 -67.87646,23.055176 -1.153,0.18775 -2.30715,0.271856 -3.37501,0.200684 z m -353.55176,-0.06738 c -3.67786,-0.289594 -5.32655,-2.626641 -5.0918,-8.900391 0.826,-22.0279997 0.27832,-44.10713 0.27832,-66.43213 -6.523,0.52 -8.24157,4.884961 -11.05957,7.584961 -16.086,15.406 -32.64361,30.1876455 -50.34961,43.7856455 -11.859,9.1080005 -24.17626,7.8836255 -39.96826,6.1406255 73.306,-51.735 133.00127,-112.95114 183.42627,-184.76514 0,56.575 -0.0519,113.149124 0.0791,169.7241237 0.014,5.72199996 -3.50866,8.0191291 -7.55566,10.5571291 -20.049,12.5790002 -42.46542,18.0429112 -65.39942,21.9829112 -1.682,0.28875 -3.13342,0.418796 -4.35937,0.322265 z M -526.72613,27.84853 c -3.12112,0.161156 -6.10176,-0.596649 -5.57226,-5.733399 1.095,-10.627 -5.42854,-10.701457 -13.12354,-10.668457 -39.5,0.169 -79.00047,0.06699 -118.50147,0.06299 -29.142,-0.003 -58.28438,-0.0015 -89.69238,-0.0015 6.13,-7.5079998 11.63516,-9.7099572 18.13916,-11.60595716 30.463,-8.88000004 56.98183,-24.64067284 77.65283,-49.01367284 20.736,-24.449 18.85561,-57.287144 -3.37939,-74.348144 -15.735,-12.074 -33.55146,-15.41457 -52.56446,-12.28857 -11.131,1.829 -21.99166,5.31229 -34.55566,8.44629 5.332,-11.88 14.17399,-18.66947 22.77099,-25.12647 21.556,-16.188 43.99754,-23.70813 70.01954,-8.03613 14.381,8.661 29.81842,16.45395 40.85742,28.64795 20.074,22.175 43.99497,23.69581 70.04297,17.61181 31.108,-7.266 55.24833,-26.49679 78.11133,-47.63379 4.788,-4.426 8.55237,-10.37179 16.52637,-13.61279 0,57.844 -0.0329,113.943923 0.0601,170.044923 0.008,4.75599996 -1.9907,7.6279729 -5.8667,10.1469729 -20.689,13.4460001 -43.84386,19.4720671 -67.88086,22.7680671 -0.947,0.12975 -2.00357,0.286125 -3.04395,0.339844 z m -15.9375,-27.38964952 c 6.732,0.1 10.35015,-1.39330101 10.22315,-9.13330098 -0.336,-20.4390005 -0.29796,-40.8915445 0.019,-61.3315445 0.121,-7.844 -2.90506,-10.126235 -10.08106,-7.740235 -0.881,0.293 -1.75346,0.893231 -2.62646,0.886231 -22.372,-0.17 -35.02288,6.861899 -34.00488,33.295899 0.608,15.798 -12.61085,29.109411 -24.44385,43.92041142 21.973,0 41.44706,-0.18746094 60.91406,0.10253906 z m 304.21583,-0.0556641 c 6.166,0.035 6.27514,-3.86918768 6.26514,-8.36718768 -0.06,-25.5429997 -0.0971,-51.0873727 0.0249,-76.6303727 0.033,-7.039 -1.88925,-10.032981 -8.80225,-5.479981 -0.387,0.255 -0.7508,0.640422 -1.1748,0.732422 -22.581,4.905 -33.6213,16.593915 -32.3833,41.961915 0.814,16.683 -10.22779,31.980654 -23.05079,47.74365359 21.574,0 40.3491,-0.0674492 59.1211,0.0395508 z M 42.364217,-56.630476 c 3.598079,0.07458 4.491047,-2.422618 4.435547,-7.432618 -0.122,-11.083 -0.04528,-22.169883 0.01172,-33.254883 0.032,-6.374003 -1.95041,-8.503713 -8.29541,-5.053713 -16.418,8.928002 -33.2014898,17.133658 -54.62549,23.472658 19.8670002,10.227 36.821181,15.852985 53.909181,21.333985 1.86525,0.59825 3.365094,0.909711 4.564452,0.934571 z M -323.19634,-103.89806 c 2.97916,-0.0391 5.11474,-0.72183 4.93799,-4.71533 -0.32,-7.236 -13.05938,-16.56199 -22.83838,-16.77099 -5.07,0.007 -10.88296,-0.65208 -11.81396,6.27392 -0.843,6.28 15.83713,14.84476 28.39013,15.19776 0.45575,0.0129 0.89863,0.0202 1.32422,0.0146 z"
         transform="matrix(1.3333333,0,0,-1.3333333,1010.8093,1762.9302)"
         sodipodi:nodetypes="sccccccccccccscccssccccsssscscccsccccccccccccssscccccsccccsccccssscccccccscccscccsssccccccccsssccscccccccscsccsssscccsccccsccscscssccccssssccss" />
    </g>
    <g
       id="g3"
       transform="matrix(0.56248458,0,0,0.56248458,19.148843,-467.11187)"
       style="fill:#ffffff">
      <path
         id="path3"
         clip-path="url(#clipPath2)"
         style="fill:#ffffff;fill-opacity:1;fill-rule:nonzero;stroke:none"
         d="m 50.139608,28.421284 c -2.21525,-0.244875 -3.803523,-1.706813 -3.436523,-6.257813 0.838,-10.408 -4.927512,-10.805461 -12.874512,-10.772461 -55.297,0.234 -110.594094,0.163933 -165.892093,0.106933 -3.36,-0.004 -7.15791,1.59043 -11.00391,-2.0595701 5.613,-6.789 11.98121,-9.26944555 20.40821,-9.23144555 40.884996,0.186 81.77169,-0.092543 122.65869031249,-0.20654297499 C 5.2734703,2.8833844 10.216381,1.6772047 17.482381,-0.65879533 10.262381,-3.5197953 5.7186969,-6.5299322 0.03169688,-5.7989322 -49.975303,-24.941932 -94.731045,-52.215216 -135.87504,-91.662216 c 50.095995,-0.584 95.044077,-9.578474 138.5800768,-24.313474 43.7900002,-14.82 85.1432882,-35.30825 123.4672932,-62.05225 3.092,3.924 1.97939,7.22313 1.98339,10.28613 0.039,34.382 -0.0756,68.765513 0.19336,103.145513 0.035,4.498 -3.296,12.679914 7.292,10.461914 19.717,-4.132 36.5577,-13.342129 48.9917,-29.307129 7.74,-9.937 5.4969,-17.870458 -5.9751,-23.689458 -8.286,-4.202 -17.22833,-6.62976 -26.46533,-8.00976 -5.636,-0.842 -7.21583,-3.40633 -3.09083,-8.36133 10.123,-12.16 23.24584,-19.61607 37.90284,-24.74707 4.474,-1.567 7.92716,0.50166 11.38916,3.22266 21.049,16.547 26.68546,53.339071 11.79346,75.476071 -18.101,26.905 -41.9176,47.724908 -68.9546,65.0039083 -25.691,16.4179997 -53.610994,27.4598057 -83.895994,31.9248057 -2.139,0.3155 -4.981528,1.287844 -7.196778,1.042969 z M -226.99126,28.305561 c -3.21234,0.09398 -5.8564,-0.926684 -5.1709,-5.731934 1.751,-12.274 -6.28205,-10.901297 -13.83105,-10.904297 -61.824,-0.024 -123.64866,-0.06591 -185.47266,-0.23291 -3.758,-0.01 -8.29321,2.142238 -11.61621,-3.030762 4.168,-2.927 6.96493,-7.6630744 12.58593,-7.9760744 15.142,-0.844 28.78284,-6.89693 42.50684,-12.3779296 23.515,-9.393 44.76387,-22.250751 59.94287,-43.218751 1.97,-2.721 5.7944,-5.822032 3.4834,-9.832032 -1.996,-3.465 -5.93098,-1.0655 -8.95898,-1.3125 -11.581,-0.945 -23.04476,-2.143512 -34.32276,-5.374512 -29.999,-8.596 -45.96028,-33.474469 -39.46728,-62.251469 5.533,-24.525 34.33361,-40.95265 62.45361,-35.63965 27.97,5.284 46.7533,22.28791 58.9043,47.10791 3.93,8.026 8.2058,11.76247 17.1958,7.77247 4.176,-1.853 8.9381,-2.3479 13.3711,-3.6709 38.42,-11.462 71.06188,-33.20166 102.73388,-58.34766 1.211,2.133 2.00045,2.8737 2.00245,3.6167 0.131,55.771 0.15095,111.541991 0.35595,167.3129914 0.019,5.39600002 -2.42704,8.5590276 -6.66504,11.2280276 -20.445,12.875 -43.26842,18.631071 -66.73242,22.497071 -1.095,0.1805 -2.22805,0.334883 -3.29883,0.366211 z M 605.7695,28.135639 c -3.20357,-0.213516 -5.62582,-1.827024 -4.87207,-6.249024 1.974,-11.59 -5.52519,-10.26709 -12.59619,-10.26709 -76.218,-0.003 -152.43579,-0.05096 -228.65479,-0.08496 -7.603,-0.004 -15.2084,-0.0015 -23.8374,-0.0015 5.476,-10.76800049 13.43302,-11.29697343 21.99902,-11.27197343 46.94,0.136 93.8803,0.0806367 140.8213,0.0776367 30.658,-0.002 61.31661,7.5781e-4 91.97461,-0.0732422 4.811,-0.011 10.40286,1.62214833 10.23486,-6.92285167 -0.387,-19.7680004 -0.12305,-39.5470214 -0.12305,-60.5200214 -12.792,11.622 -23.74938,22.628903 -35.79638,32.274903 -17.965,14.384 -21.67001,13.623262 -35.83301,-3.906738 -3.497,-4.328 -7.12442,-8.62691 -10.00342,-13.35791 -4.088,-6.72 -7.09394,-6.577063 -12.21094,-0.539063 -10.785,12.725 -21.8558,25.34738 -36.4248,34.08838 -8.065,4.838 -16.262,8.8575976 -26.146,5.037598 -29.863,-11.542 -54.49283,-29.741494 -71.17383,-57.354494 -14.381,-23.806 -9.7535,-43.016519 13.2085,-58.624519 19.203,-13.053 41.01343,-19.0743 63.56543,-22.9043 21.664,-3.679 28.20037,0.33129 35.27637,21.84229 1.585,4.821 2.65244,9.83415 3.60644,14.82715 0.396,2.078 2.47422,4.39278 0.30322,6.44678 -2.837,2.685 -5.03836,-0.013 -7.31836,-1.292 -11.205,-6.291 -23.066,-9.76122 -36,-7.80322 -10.876,1.647 -13.43439,7.1634 -7.50439,16.1294 2.547,3.85 5.16889,7.99011 8.71289,10.78711 30.709,24.234 39.77387,27.020066 65.08887,-4.231934 9.467,-11.687006 18.13421,-24.019246 27.74121,-36.823246 5.982,12.744 9.62457,24.77314 17.05957,35.140141 5.924,8.259 12.19811,10.102648 21.28711,5.639648 17.242,-8.467009 32.08474,-20.232659 46.76074,-32.368659 19.809,-16.381 37.51599,-35.04023 58.08399,-55.36523 0,60.384 -0.0412,117.346622 0.0718,174.3076219 0.009,4.87799997 -2.31581,7.7194221 -6.04981,10.1074221 -20.735,13.262 -43.97146,19.163176 -67.87646,23.055176 -1.153,0.18775 -2.30715,0.271856 -3.37501,0.200684 z m -353.55176,-0.06738 c -3.67786,-0.289594 -5.32655,-2.626641 -5.0918,-8.900391 0.826,-22.0279997 0.27832,-44.10713 0.27832,-66.43213 -6.523,0.52 -8.24157,4.884961 -11.05957,7.584961 -16.086,15.406 -32.64361,30.1876455 -50.34961,43.7856455 -11.859,9.1080005 -24.17626,7.8836255 -39.96826,6.1406255 73.306,-51.735 133.00127,-112.95114 183.42627,-184.76514 0,56.575 -0.0519,113.149124 0.0791,169.7241237 0.014,5.72199996 -3.50866,8.0191291 -7.55566,10.5571291 -20.049,12.5790002 -42.46542,18.0429112 -65.39942,21.9829112 -1.682,0.28875 -3.13342,0.418796 -4.35937,0.322265 z M -526.72613,27.84853 c -3.12112,0.161156 -6.10176,-0.596649 -5.57226,-5.733399 1.095,-10.627 -5.42854,-10.701457 -13.12354,-10.668457 -39.5,0.169 -79.00047,0.06699 -118.50147,0.06299 -29.142,-0.003 -58.28438,-0.0015 -89.69238,-0.0015 6.13,-7.5079998 11.63516,-9.7099572 18.13916,-11.60595716 30.463,-8.88000004 56.98183,-24.64067284 77.65283,-49.01367284 20.736,-24.449 18.85561,-57.287144 -3.37939,-74.348144 -15.735,-12.074 -33.55146,-15.41457 -52.56446,-12.28857 -11.131,1.829 -21.99166,5.31229 -34.55566,8.44629 5.332,-11.88 14.17399,-18.66947 22.77099,-25.12647 21.556,-16.188 43.99754,-23.70813 70.01954,-8.03613 14.381,8.661 29.81842,16.45395 40.85742,28.64795 20.074,22.175 43.99497,23.69581 70.04297,17.61181 31.108,-7.266 55.24833,-26.49679 78.11133,-47.63379 4.788,-4.426 8.55237,-10.37179 16.52637,-13.61279 0,57.844 -0.0329,113.943923 0.0601,170.044923 0.008,4.75599996 -1.9907,7.6279729 -5.8667,10.1469729 -20.689,13.4460001 -43.84386,19.4720671 -67.88086,22.7680671 -0.947,0.12975 -2.00357,0.286125 -3.04395,0.339844 z m -15.9375,-27.38964952 c 6.732,0.1 10.35015,-1.39330101 10.22315,-9.13330098 -0.336,-20.4390005 -0.29796,-40.8915445 0.019,-61.3315445 0.121,-7.844 -2.90506,-10.126235 -10.08106,-7.740235 -0.881,0.293 -1.75346,0.893231 -2.62646,0.886231 -22.372,-0.17 -35.02288,6.861899 -34.00488,33.295899 0.608,15.798 -12.61085,29.109411 -24.44385,43.92041142 21.973,0 41.44706,-0.18746094 60.91406,0.10253906 z m 304.21583,-0.0556641 c 6.166,0.035 6.27514,-3.86918768 6.26514,-8.36718768 -0.06,-25.5429997 -0.0971,-51.0873727 0.0249,-76.6303727 0.033,-7.039 -1.88925,-10.032981 -8.80225,-5.479981 -0.387,0.255 -0.7508,0.640422 -1.1748,0.732422 -22.581,4.905 -33.6213,16.593915 -32.3833,41.961915 0.814,16.683 -10.22779,31.980654 -23.05079,47.74365359 21.574,0 40.3491,-0.0674492 59.1211,0.0395508 z M 42.364217,-56.630476 c 3.598079,0.07458 4.491047,-2.422618 4.435547,-7.432618 -0.122,-11.083 -0.04528,-22.169883 0.01172,-33.254883 0.032,-6.374003 -1.95041,-8.503713 -8.29541,-5.053713 -16.418,8.928002 -33.2014898,17.133658 -54.62549,23.472658 19.8670002,10.227 36.821181,15.852985 53.909181,21.333985 1.86525,0.59825 3.365094,0.909711 4.564452,0.934571 z M -323.19634,-103.89806 c 2.97916,-0.0391 5.11474,-0.72183 4.93799,-4.71533 -0.32,-7.236 -13.05938,-16.56199 -22.83838,-16.77099 -5.07,0.007 -10.88296,-0.65208 -11.81396,6.27392 -0.843,6.28 15.83713,14.84476 28.39013,15.19776 0.45575,0.0129 0.89863,0.0202 1.32422,0.0146 z"
         transform="matrix(1.3333333,0,0,-1.3333333,1010.8093,1762.9302)"
         sodipodi:nodetypes="sccccccccccccscccssccccsssscscccsccccccccccccssscccccsccccsccccssscccccccscccscccsssccccccccsssccscccccccscsccsssscccsccccsccscscssccccssssccss" />
    </g>
  </g>
</svg>
