<?xml version="1.0" encoding="UTF-8" standalone="no"?>
<!-- Created with Inkscape (http://www.inkscape.org/) -->

<svg
   width="1080"
   height="1080"
   viewBox="0 0 1080 1080"
   version="1.1"
   id="svg1"
   inkscape:version="1.4 (e7c3feb100, 2024-10-09)"
   sodipodi:docname="CLUSTER-Logo-BLACK-noBG.svg"
   inkscape:export-filename="CLUSTER-Logo-BLACK-noBG.png"
   inkscape:export-xdpi="96"
   inkscape:export-ydpi="96"
   xmlns:inkscape="http://www.inkscape.org/namespaces/inkscape"
   xmlns:sodipodi="http://sodipodi.sourceforge.net/DTD/sodipodi-0.dtd"
   xmlns="http://www.w3.org/2000/svg"
   xmlns:svg="http://www.w3.org/2000/svg">
  <sodipodi:namedview
     id="namedview1"
     pagecolor="#ffffff"
     bordercolor="#000000"
     borderopacity="0.25"
     inkscape:showpageshadow="2"
     inkscape:pageopacity="0.0"
     inkscape:pagecheckerboard="0"
     inkscape:deskcolor="#d1d1d1"
     inkscape:document-units="px"
     inkscape:zoom="0.52902063"
     inkscape:cx="885.59873"
     inkscape:cy="526.4445"
     inkscape:window-width="1920"
     inkscape:window-height="1012"
     inkscape:window-x="0"
     inkscape:window-y="0"
     inkscape:window-maximized="1"
     inkscape:current-layer="g2" />
  <defs
     id="defs1">
    <clipPath
       clipPathUnits="userSpaceOnUse"
       id="clipPath4">
      <path
         d="M 0,1080 H 1080 V 0 H 0 Z"
         transform="translate(-998.881,-286.87381)"
         id="path4" />
    </clipPath>
    <clipPath
       clipPathUnits="userSpaceOnUse"
       id="clipPath6">
      <path
         d="M 0,1080 H 1080 V 0 H 0 Z"
         transform="translate(-777.32934,-322.06793)"
         id="path6" />
    </clipPath>
    <clipPath
       clipPathUnits="userSpaceOnUse"
       id="clipPath8">
      <path
         d="M 0,1080 H 1080 V 0 H 0 Z"
         transform="translate(-857.08825,-353.99251)"
         id="path8" />
    </clipPath>
    <clipPath
       clipPathUnits="userSpaceOnUse"
       id="clipPath10">
      <path
         d="M 0,1080 H 1080 V 0 H 0 Z"
         transform="translate(-699.29972,-363.79741)"
         id="path10" />
    </clipPath>
    <clipPath
       clipPathUnits="userSpaceOnUse"
       id="clipPath12">
      <path
         d="M 0,1080 H 1080 V 0 H 0 Z"
         transform="translate(-808.56835,-341.72091)"
         id="path12" />
    </clipPath>
  </defs>
  <g
     inkscape:label="Layer 1"
     inkscape:groupmode="layer"
     id="layer1">
    <g
       id="g1"
       transform="matrix(0.76495159,0,0,0.76495159,887.76641,-199.02348)">
      <g
         id="g2"
         transform="translate(-1366.5282,-24.711191)">
        <path
           id="path1"
           style="fill:#000000 icc-color(sRGB-IEC61966-2, 0.1, 0, 0, 0);fill-opacity:1;fill-rule:nonzero;stroke:none;stroke-width:1.33333"
           d="m 964.92421,298.08622 c -38.98004,0.60761 -78.81679,4.43068 -119.52349,11.54842 -284.84905,49.80662 -503.07816,271.18008 -559.74744,567.90512 -50.87195,266.36234 84.33008,561.35584 322.7405,704.94914 181.95582,109.5919 375.47989,124.563 577.51302,71.591 122.2852,-32.0627 226.3047,-90.0308 289.474,-205.2494 22.6213,-41.2626 19.5143,-46.2591 -27.6723,-45.9511 -135.0118,0.8813 -270.0368,1.3471 -405.022,3.8324 -26.26,0.484 -33.3794,-6.3474 -33.1567,-32.5541 L 993.3293,533.00458 c -0.556,-83.35592 -12.18579,-71.1834 69.1501,-59.51408 99.4559,14.26798 145.1275,62.82491 164.5861,161.67281 5.1374,26.09464 10.8281,52.32901 19.3308,77.46099 18.012,53.23728 62.6618,72.16898 112.8365,79.95297 46.3919,7.19867 83.9135,-9.97815 112.3309,-47.95544 67.8692,-90.70125 50.9394,-200.16475 -47.1231,-279.68733 C 1286.6613,353.20394 1133.8377,295.45323 964.92421,298.08622 Z m 6.22742,24.25092 c 156.67007,-0.70248 298.42557,52.43353 427.64657,153.31342 22.944,17.91198 43.9874,38.04489 59.9941,62.84354 46.2039,71.57726 39.9311,129.68148 -16.4022,201.40674 -45.2853,57.66128 -152.7838,30.75368 -175.8358,-41.34759 -9.496,-29.69863 -15.6346,-60.62024 -21.3453,-91.34821 -13.6733,-73.58658 -58.1999,-119.01627 -127.0505,-143.46291 -40.9813,-14.55066 -83.1827,-20.16805 -126.56798,-20.89338 -18.44665,-0.308 -23.51017,5.1733 -23.09684,23.35728 l 15.26087,920.09247 c 0.112,38.2279 11.5876,44.3615 46.21155,43.7042 131.5346,-2.4933 263.1312,-1.6852 394.7043,-2.1039 10.0454,-0.032 20.0903,0 33.9048,0 -38.4252,75.6427 -94.4305,128.4949 -166.7997,161.2081 -461.33827,208.5384 -916.63608,-64.7865 -984.79734,-504.0887 -54.82394,-353.34501 199.11692,-697.52944 553.29788,-753.51739 37.77271,-5.97124 74.72095,-9.00156 110.87559,-9.16367 z" />
        <path
           id="path3"
           clip-path="url(#clipPath4)"
           style="fill:#010101 icc-color(sRGB-IEC61966-2, 0.1, 0.0039978, 0.0039978, 0.0039978);fill-opacity:1;fill-rule:nonzero;stroke:none"
           d="m -40.229136,136.3171 c -7.355749,-0.10756 -14.855431,-1.21086 -21.584473,-1.21436 -5.668452,-0.003 -7.192848,-3.34504 -7.193848,-8.16504 -0.005,-39.970958 -0.01021,-79.94308 0.0088,-119.9150397 0.003,-4.7949952 1.499799,-7.92330906 7.237793,-8.2163088 7.490993,-0.3809996 8.5295,3.9530764 8.4375,9.7470706 -0.378669,13.6358369 -5.604284,37.6145149 5.187012,45.2109389 15.250985,2.837997 15.053945,-17.537197 20.425782,-28.669923 C -22.338745,13.961712 -24.673107,-5.1307957 -1.3125e-4,1.9921876e-4 -2.9351283,8.9581903 -4.8203884,16.584379 -7.8853854,23.701372 -15.692378,41.830354 -24.721803,57.484441 -8.929819,78.57442 c 9.6289904,12.859987 7.1704676,34.9742 -5.58252,48.76318 -7.038555,7.61062 -16.259406,9.11778 -25.716797,8.9795 z m -1.918946,-23.13282 c 0.815059,-0.0188 1.684935,-0.0781 2.614747,-0.17871 10.817989,-1.17 17.457918,-4.44055 17.690918,-16.977536 0.241,-13.034987 -4.705642,-18.423634 -17.869629,-19.098634 -15.195985,-0.778999 -13.9025,8.805382 -13.687501,19.255372 -0.693749,8.654988 -0.97442,17.280958 11.251465,16.999508 z"
           transform="matrix(1.3333333,0,0,-1.3333333,1522.1633,1322.3392)" />
        <path
           id="path5"
           d="m 0,0 c -1.574,-5.392 -2.998,-16.094 -7.694,-25.088 -8.642,-16.549 -24.75,-16.869 -38.325,-9.501 -13.941,7.566 -16.258,23.578 -16.162,38.744 0.01,1.569 3.412,3.876 5.625,4.522 5.361,1.566 7.98,-2.03 9.146,-6.558 2.542,-9.867 6.033,-18.909 18.685,-17.149 8.037,1.118 11.606,7.728 12.561,14.851 1.762,13.145 -8.066,17.106 -17.722,22.238 -25.88,13.754 -31.888,30.381 -24.158,58.413 3.782,13.713 11.347,20.362 25.712,20.819 15.113,0.48 22.198,-8.15 25.994,-20.765 1.859,-6.178 6.616,-14.24 -1.577,-18.603 -8.966,-4.775 -11.321,2.344 -13.655,9.754 -2.148,6.819 -8.667,8.274 -15.142,6.683 -5.485,-1.347 -8.853,-5.437 -9.42,-11.143 -0.835,-8.403 5.233,-12.1 11.225,-15.959 C -6.198,32.775 -0.186,24.699 0,0"
           style="fill:#040404 icc-color(sRGB-IEC61966-2, 0.1, 0.01599121, 0.01599121, 0.01599121);fill-opacity:1;fill-rule:nonzero;stroke:none"
           transform="matrix(1.3333333,0,0,-1.3333333,1226.7611,1275.4137)"
           clip-path="url(#clipPath6)" />
        <path
           id="path7"
           d="m 0,0 c -0.002,9.592 -0.002,19.184 -0.002,28.777 0,41.507 -0.002,41.466 42.129,39.272 7.601,-0.396 15.642,1.989 15.516,-11.024 C 57.521,44.494 49.947438,45.360551 42.275,45.482 32.733842,45.63303 18.33,54.52 15.602,34.868 13.396,18.979 18.583,12.595 35.245,14.419 42.197,15.18 53.651,20.241 54.43,4.849 55.151,-9.379 45.681,-8.388 37.18,-7.217 19.977,-4.849 15.227,-11.079 15.008,-28.578 c -0.244,-19.55 10.289,-17.732 22.99,-18.006 7.968,-0.172 20.736,5.939 19.889,-11.467 C 57.042,-75.419 45.361554,-67.494396 36.548,-68.01 28.83128,-68.461438 21.446777,-68.559856 13.06,-68.42 2.7458194,-68.248002 -0.573,-65.095 -0.191,-54.93 0.494,-36.643 0.002,-18.312 0,0"
           style="fill:#040404 icc-color(sRGB-IEC61966-2, 0.1, 0.01599121, 0.01599121, 0.01599121);fill-opacity:1;fill-rule:nonzero;stroke:none"
           transform="matrix(1.3333333,0,0,-1.3333333,1333.1063,1232.8476)"
           clip-path="url(#clipPath8)"
           sodipodi:nodetypes="csscssscccsssscc" />
        <path
           id="path9"
           d="m 0,0 c 0,-15.673 1.095,-31.444 -0.293,-46.994 -1.539,-17.24 -6.936,-32.288 -29.071,-32.665 -20.77,-0.354 -26.711,12.541 -28.945,29.593 -4.088,31.211 -2.815,62.587 -2.681,93.92 0.025,5.671 -1.928,13.683 7.123,13.964 11.74,0.364 7.671,-9.449 7.816,-15.37 0.597,-24.369 -0.264,-48.8 1.107,-73.113 0.583,-10.35 -0.337,-25.763 15.579,-25.673 16.503,0.093 13.814,15.131 14.095,25.741 0.647,24.367 0.252,48.76 0.399,73.142 0.04,6.694 -1.83,15.651 8.775,15.28 C 5.203,57.43 0.672,47.719 0.92,41.788"
           style="fill:#070707 icc-color(sRGB-IEC61966-2, 0.1, 0.0269928, 0.0269928, 0.0269928);fill-opacity:1;fill-rule:nonzero;stroke:none"
           transform="matrix(1.3333333,0,0,-1.3333333,1122.7216,1219.7744)"
           clip-path="url(#clipPath10)" />
        <path
           id="path11"
           d="m 0,0 c -0.005,13.036 -0.066,26.073 0.015,39.109 0.059,9.591 1.94,20.007 -13.539,18.737 -10.655,-0.874 -9.846,7.142 -9.7,14.237 0.192,9.335 7.148,8.144 13.027,8.216 12.168,0.148 24.34,-0.071 36.507,0.084 6.643,0.084 12.239,-0.47 11.487,-9.405 C 37.304,65.13 39.133,57.289 29.801,57.887 12.785,58.977 15.375,47.378 15.367,37.185 15.348,10.243 15.334,-16.699 15.365,-43.64 c 0.007,-6.293 0.251,-12.775 -8.862,-12.207 -7.792,0.486 -6.384,6.693 -6.438,11.524 C -0.1,-29.55 0.005,-14.774 0,0"
           style="fill:#0b0b0b icc-color(sRGB-IEC61966-2, 0.1, 0.04299927, 0.04299927, 0.04299927);fill-opacity:1;fill-rule:nonzero;stroke:none"
           transform="matrix(1.3333333,0,0,-1.3333333,1268.4131,1249.2097)"
           clip-path="url(#clipPath12)" />
        <g
           id="g223"
           transform="translate(-2724.7275,286.2237)">
          <path
             id="path201"
             style="opacity:1;fill:#000000;stroke-width:1.47294;stroke-linecap:square;stroke-linejoin:round;stroke-dasharray:11.7835, 2.94587, 1.47294, 2.94587"
             d="m 3491.5469,309.41016 a 30.192406,75.093925 0 0 0 -29.5254,60.16992 h -43.3574 c -4.9367,0 -8.9121,3.97353 -8.9121,8.91015 v 12.0293 c 0,4.93663 3.9754,8.91211 8.9121,8.91211 h 43.3574 a 30.192406,75.093925 0 0 0 29.5254,60.16797 30.192406,75.093925 0 0 0 29.5234,-60.16797 h 79.1074 a 30.192406,75.093925 0 0 0 29.5235,60.16797 30.192406,75.093925 0 0 0 29.5234,-60.16797 h 12.0625 c 4.9366,0 8.9102,-3.97548 8.9102,-8.91211 v -12.0293 c 0,-4.93662 -3.9736,-8.91015 -8.9102,-8.91015 h -12.0019 a 30.192406,75.093925 0 0 0 -29.584,-60.16992 30.192406,75.093925 0 0 0 -29.5254,60.16992 h -79.0469 a 30.192406,75.093925 0 0 0 -29.582,-60.16992 z" />
          <path
             id="ellipse208"
             style="opacity:1;fill:#000000;stroke-width:1.47294;stroke-linecap:square;stroke-linejoin:round;stroke-dasharray:11.7835, 2.94587, 1.47294, 2.94587"
             d="m 3385.7012,489.41016 a 30.192406,75.093925 0 0 0 -29.8438,64.16992 h -27.6386 c -4.9367,0 -8.9122,3.97353 -8.9122,8.91015 v 12.0293 c 0,4.93663 3.9755,8.91211 8.9122,8.91211 h 28.2773 a 30.192406,75.093925 0 0 0 29.2051,56.16797 30.192406,75.093925 0 0 0 29.205,-56.16797 h 47.2754 a 30.192406,75.093925 0 0 0 29.3653,58.16797 30.192406,75.093925 0 0 0 29.3652,-58.16797 h 79.4238 a 30.192406,75.093925 0 0 0 29.3653,58.16797 30.192406,75.093925 0 0 0 29.3652,-58.16797 h 12.2207 c 4.9366,0 8.9102,-3.97548 8.9102,-8.91211 v -12.0293 c 0,-4.93662 -3.9736,-8.91015 -8.9102,-8.91015 h -11.8437 a 30.192406,75.093925 0 0 0 -29.7422,-62.16992 30.192406,75.093925 0 0 0 -29.6836,62.16992 h -78.7305 a 30.192406,75.093925 0 0 0 -29.7402,-62.16992 30.192406,75.093925 0 0 0 -29.6856,62.16992 h -46.2949 a 30.192406,75.093925 0 0 0 -29.8652,-64.16992 z" />
          <path
             id="ellipse210"
             style="opacity:1;fill:#000000;stroke-width:1.47294;stroke-linecap:square;stroke-linejoin:round;stroke-dasharray:11.7835, 2.94587, 1.47294, 2.94587"
             d="m 3261.5469,657.41016 a 30.192406,75.093925 0 0 0 -29.3653,58.16992 h -20.0332 c -4.9366,0 -8.9101,3.97353 -8.9101,8.91015 v 12.0293 c 0,4.93663 3.9735,8.91211 8.9101,8.91211 h 19.7129 a 30.192406,75.093925 0 0 0 29.6856,62.16797 30.192406,75.093925 0 0 0 29.6836,-62.16797 h 68.7871 a 30.192406,75.093925 0 0 0 29.6836,62.16797 30.192406,75.093925 0 0 0 29.6836,-62.16797 h 46.4765 a 30.192406,75.093925 0 0 0 29.6856,62.16797 30.192406,75.093925 0 0 0 29.6836,-62.16797 h 78.7871 a 30.192406,75.093925 0 0 0 29.6836,62.16797 30.192406,75.093925 0 0 0 29.6836,-62.16797 h 9.9023 c 4.9366,0 8.9102,-3.97548 8.9102,-8.91211 v -12.0293 c 0,-4.93662 -3.9736,-8.91015 -8.9102,-8.91015 h -10.1758 a 30.192406,75.093925 0 0 0 -29.4101,-58.16992 30.192406,75.093925 0 0 0 -29.3653,58.16992 h -79.3789 a 30.192406,75.093925 0 0 0 -29.4101,-58.16992 30.192406,75.093925 0 0 0 -29.3653,58.16992 h -47.0703 a 30.192406,75.093925 0 0 0 -29.4101,-58.16992 30.192406,75.093925 0 0 0 -29.3653,58.16992 h -69.3789 a 30.192406,75.093925 0 0 0 -29.4101,-58.16992 z" />
          <path
             id="ellipse212"
             style="opacity:1;fill:#000000;stroke-width:1.47294;stroke-linecap:square;stroke-linejoin:round;stroke-dasharray:11.7835, 2.94587, 1.47294, 2.94587"
             d="m 3493.5469,837.41016 a 30.192406,75.093925 0 0 0 -29.6856,62.16992 h -44.5761 a 30.192406,75.093925 0 0 0 -29.584,-60.16992 30.192406,75.093925 0 0 0 -29.5254,60.16992 h -23.2754 c -4.9366,0 -8.9102,3.97353 -8.9102,8.91015 v 12.0293 c 0,4.93663 3.9736,8.91211 8.9102,8.91211 h 23.2773 a 30.192406,75.093925 0 0 0 29.5235,60.16797 30.192406,75.093925 0 0 0 29.5234,-60.16797 h 44.957 a 30.192406,75.093925 0 0 0 29.3653,58.16797 30.192406,75.093925 0 0 0 29.3652,-58.16797 h 79.4238 a 30.192406,75.093925 0 0 0 29.3653,58.16797 30.192406,75.093925 0 0 0 29.3652,-58.16797 h 12.2207 c 4.9366,0 8.9102,-3.97548 8.9102,-8.91211 v -12.0293 c 0,-4.93662 -3.9736,-8.91015 -8.9102,-8.91015 h -11.8437 a 30.192406,75.093925 0 0 0 -29.7422,-62.16992 30.192406,75.093925 0 0 0 -29.6836,62.16992 h -78.7305 a 30.192406,75.093925 0 0 0 -29.7402,-62.16992 z" />
          <path
             id="ellipse214"
             style="opacity:1;fill:#000000;stroke-width:1.47294;stroke-linecap:square;stroke-linejoin:round;stroke-dasharray:11.7835, 2.94587, 1.47294, 2.94587"
             d="m 3493.5469,1011.4102 a 30.192406,75.093925 0 0 0 -29.5254,60.1699 h -34.4473 c -4.9366,0 -8.9101,3.9735 -8.9101,8.9101 v 12.0293 c 0,4.9367 3.9735,8.9121 8.9101,8.9121 h 34.4473 a 30.192406,75.093925 0 0 0 29.5254,60.168 30.192406,75.093925 0 0 0 29.5234,-60.168 h 79.1074 a 30.192406,75.093925 0 0 0 29.5235,60.168 30.192406,75.093925 0 0 0 29.5234,-60.168 h 12.0625 c 4.9366,0 8.9102,-3.9754 8.9102,-8.9121 v -12.0293 c 0,-4.9366 -3.9736,-8.9101 -8.9102,-8.9101 h -12.0019 a 30.192406,75.093925 0 0 0 -29.584,-60.1699 30.192406,75.093925 0 0 0 -29.5254,60.1699 h -79.0469 a 30.192406,75.093925 0 0 0 -29.582,-60.1699 z" />
        </g>
        <path
           d="m 1122.802,1605.1242 q 14.9793,-3.2757 21.3827,-15.1854 6.4035,-11.9096 2.5865,-29.3637 -3.7885,-17.3239 -13.9559,-25.7462 -10.2691,-8.2635 -26.2904,-4.7599 -6.122,1.3388 -11.3648,3.5772 -5.2428,2.2384 -10.1112,4.9409 l -2.2218,-10.1599 q 4.7829,-3.0932 10.1844,-5.2298 5.2713,-2.1082 12.9564,-3.7888 14.1977,-3.1049 24.9882,0.6772 10.7904,3.7821 17.9741,13.5393 7.0534,9.7856 10.2437,24.3742 3.0764,14.0675 0.3322,25.8593 -2.8459,11.9505 -11.5652,20.1356 -8.6909,8.3153 -23.0189,11.4486 -14.7188,3.2188 -26.8565,0.1409 l 2.5243,-10.9248 q 4.7257,1.0138 10.4079,1.4089 5.552,0.4237 11.8043,-0.9436 z m -56.4981,-77.9855 11.6269,-1.5767 13.6177,100.4139 -11.6269,1.5767 z m -63.199,76.3699 -3.99883,-71.3545 9.58493,-0.5372 2.2603,9.3548 0.5325,-0.03 q 3.1479,-5.7852 9.1224,-8.7909 5.982,-2.8725 12.9044,-3.2604 12.913,-0.7237 19.7793,5.0344 6.8737,5.8913 7.6347,19.47 l 2.6187,46.7265 -11.8481,0.664 -2.5739,-45.9278 q -0.9549,-17.0399 -16.7967,-16.1521 -11.848,0.664 -16.0012,7.5738 -4.2863,6.9174 -3.5851,19.431 l 2.0815,37.1417 z m -28.50206,4.3192 q 0.29919,-4.5234 0.82926,-8.4971 0.38823,-3.8494 0.8039,-6.0935 l -0.66521,-0.044 q -3.35916,4.321 -8.88324,7.029 -5.52408,2.708 -13.90574,2.1536 -13.30423,-0.8799 -20.67081,-10.7208 -7.50841,-9.7167 -6.29407,-28.0766 1.21434,-18.3598 9.94588,-27.136 8.73155,-8.7762 21.90274,-7.905 8.38167,0.5543 13.50097,3.9663 5.1193,3.4119 7.89769,7.8717 l 0.9313,0.062 2.99313,-8.8885 8.38166,0.5544 -6.68765,101.1121 -11.70772,-0.7743 z m -19.18303,-15.0321 q 11.30859,0.748 16.13017,-5.4807 4.82157,-6.2287 5.72792,-19.932 l 0.0352,-0.5322 q 0.87116,-13.1712 -2.91982,-20.504 -3.93282,-7.2086 -15.64055,-7.983 -9.57904,-0.6335 -14.7019,6.1097 -5.2559,6.7345 -6.13585,20.0387 -1.78631,27.0076 17.50483,28.2835 z m -94.41294,-14.1965 17.67394,3.4103 11.82247,-61.2696 11.52078,2.223 -11.82246,61.2697 12.30629,2.3745 -1.03573,5.3677 -13.06414,1.5529 -0.78312,4.0585 q -2.62721,13.6155 -9.78622,18.3447 -7.18426,4.8602 -17.91954,2.7888 -4.18938,-0.8084 -7.44168,-2.2507 -3.40848,-1.3367 -5.71909,-2.7331 l 4.75417,-8.4523 q 1.96838,1.0588 4.59135,2.2439 2.62297,1.1851 5.50317,1.7408 5.76039,1.1115 9.39844,-2.2603 3.48187,-3.2661 5.07335,-11.5139 l 0.88416,-4.5821 -17.67393,-3.4104 z m -55.87278,-43.0508 q 4.87108,-17.0511 16.26257,-23.9195 11.26328,-6.9051 26.00677,-2.6933 9.1025,2.6004 15.10994,8.7539 5.84262,6.2451 7.67443,15.3657 1.79518,9.2489 -1.46441,20.6591 -4.87108,17.0511 -16.09774,23.828 -11.22666,6.7768 -25.97015,2.565 -9.3589,-2.6736 -15.20152,-8.9187 -6.00745,-6.1535 -7.71105,-15.2375 -1.86843,-8.9925 1.39116,-20.4027 z m 51.92271,14.833 q 3.47934,-12.1794 0.78677,-20.7139 -2.8574,-8.443 -13.37015,-11.4462 -10.38454,-2.9666 -17.27066,2.6929 -6.92274,5.7877 -10.40208,17.9671 -3.47935,12.1794 -0.58532,20.4942 2.89403,8.3147 13.40678,11.3179 10.51274,3.0033 17.23403,-2.5647 6.72129,-5.5679 10.20063,-17.7473 z m -102.83255,4.3404 q -1.86155,-0.7312 -3.87381,-1.808 -2.18512,-1.0015 -3.65223,-2.0075 l 5.31347,-9.5162 q 1.4671,1.006 3.35527,2.0341 1.76406,0.9794 3.5015,1.6618 5.08824,1.9985 10.67709,0.899 5.5401,-0.9755 10.26891,-4.9913 4.55597,-3.9405 7.18818,-10.6421 l 13.94101,-35.4936 10.92109,4.2896 -26.1272,66.5194 -8.93544,-3.5097 3.53596,-12.6495 -0.49642,-0.195 q -5.37145,4.1932 -12.01952,6.1659 -6.64807,1.9728 -13.59786,-0.7569 z m -78.79859,-85.5908 q 4.91306,-8.5565 12.36545,-13.5023 7.38599,-4.8302 16.87864,-4.7608 9.31062,0.1186 20.29522,6.4259 15.37844,8.8302 18.69207,21.8029 3.13162,13.0219 -4.76912,26.7816 l -30.54068,53.1885 -10.40646,-5.9753 30.73985,-53.5355 q 5.77617,-10.0596 3.64417,-18.6637 -2.24763,-8.6706 -13.1166,-14.9115 -11.21586,-6.4401 -19.57387,-3.398 -8.54002,3.0913 -13.91784,12.4571 l -30.67346,53.4199 -10.29084,-5.909 z m -61.50884,2.5979 q -10.45261,-8.0612 -11.16913,-20.2319 -0.82211,-12.2521 10.49607,-26.928 11.15534,-14.4647 23.37707,-16.994 12.11614,-2.6108 22.67432,5.5318 6.54608,5.0484 9.00214,10.8153 2.26905,5.791 2.17323,10.9368 l 0.63349,0.4885 q 1.17308,-1.9577 3.07899,-4.8657 1.9059,-2.908 3.45299,-4.914 l 17.91368,-23.228 9.29121,7.1655 -63.18644,81.9315 -7.60189,-5.8627 4.6771,-8.6846 -0.42233,-0.3257 q -5.38386,1.7412 -11.45577,1.0995 -6.07192,-0.6416 -12.93473,-5.9343 z m 7.71482,-6.5103 q 8.65771,6.677 15.99308,4.5887 7.22978,-2.1697 15.09497,-11.9316 l 1.38424,-1.7949 q 8.06116,-10.4526 9.07953,-18.7596 0.83137,-8.2829 -8.45983,-15.4484 -5.17351,-3.9898 -10.64504,-3.6633 -5.57712,0.2451 -10.90643,3.8804 -5.51633,3.6596 -10.40187,9.9945 -7.49118,9.7135 -8.16865,18.4518 -0.78306,8.6569 7.03,14.6824 z m -6.24216,-90.4364 q 9.49191,9.3638 8.72604,21.5315 -0.85951,12.2626 -13.78153,25.3614 -12.92203,13.0989 -25.17183,14.1249 -12.43835,1.0274 -21.93026,-8.3364 -5.88499,-5.8056 -7.43316,-11.6406 -1.64309,-5.9286 -0.92602,-11.4019 l -0.56951,-0.5618 q -1.12238,1.3275 -3.17857,3.9814 -2.24474,2.6552 -3.64931,4.079 l -20.03851,20.3127 -8.35288,-8.2402 71.16479,-72.1385 6.73926,6.6483 -5.50798,8.0515 0.37967,0.3745 q 5.46175,-0.9799 11.50582,0.4876 6.04408,1.4674 12.02398,7.3666 z m -8.16443,5.6182 q -8.06813,-7.9593 -15.60272,-6.7767 -7.72315,1.1839 -16.52511,10.1063 l -1.4982,1.5187 q -9.36379,9.4919 -11.19427,17.6127 -1.92412,8.2157 6.52368,16.5494 6.73926,6.6483 15.49371,4.6089 8.56588,-2.0381 17.46148,-11.0555 8.98924,-9.1122 10.62988,-17.4202 1.54572,-8.4017 -5.28845,-15.1436 z m -95.59486,-9.9874 q -8.18635,-10.1844 -7.64382,-18.6607 0.54253,-8.4763 10.31117,-16.3285 l 37.93143,-30.4899 5.34619,6.6509 -6.47797,8.1153 0.33414,0.4157 q 7.49625,-0.038 12.93644,2.2605 5.35665,2.1948 11.03698,9.2615 6.09799,7.5863 6.15861,15.7488 -0.0433,8.2461 -8.56489,15.0959 -8.31374,6.6827 -18.04503,3.7276 -9.83521,-2.8716 -21.19387,-16.1512 l -7.91338,-9.2062 -3.32549,2.6731 q -6.96276,5.5967 -7.24223,10.7824 -0.27948,5.1856 4.14783,10.6934 3.50844,4.3648 8.03372,7.2278 4.42136,2.9466 8.84074,5.0395 l -4.60341,8.3192 q -4.89821,-2.0501 -10.25884,-5.9524 -5.46454,-3.8188 -9.80832,-9.2227 z m 27.54973,-26.5928 q 8.7691,10.0581 14.93675,11.772 6.0841,1.6101 11.38411,-2.6501 4.67648,-3.7591 4.60341,-8.3192 -0.1566,-4.664 -3.74857,-9.1326 -5.68032,-7.0667 -13.28447,-8.6524 -7.70806,-1.5022 -15.81396,5.0135 l -4.98824,4.0096 z m -10.91194,-60.1723 q -1.48957,-2.2118 -3.38539,-4.3108 -2.00642,-2.0246 -3.41701,-3.1643 l 7.40967,-4.9901 q 1.81684,1.0269 4.19566,3.6044 2.4894,2.503 4.27689,5.1572 3.1281,4.6449 4.26104,9.6689 0.94787,4.9879 -1.39492,10.1022 -2.34279,5.1142 -9.53128,9.9553 l -34.50475,23.2374 5.66038,8.405 -4.64487,3.1281 -9.60558,-5.9089 -15.21426,4.6199 -3.87289,-5.7508 13.60284,-9.1609 -11.54419,-17.1418 7.52027,-5.0645 11.54419,17.1418 34.28356,-23.0884 q 5.41902,-3.6495 6.36022,-7.9806 0.75613,-4.3672 -1.99958,-8.4591 z m -75.57865,-0.9046 q -4.47471,-8.0384 -4.15742,-15.6924 0.25244,-7.7705 4.97377,-14.3663 4.53999,-6.6474 13.04443,-11.3815 l 6.17446,-3.4371 23.80023,42.7552 q 10.47173,-6.1344 13.21026,-14.3732 2.55717,-8.2905 -2.63089,-17.6104 -3.30739,-5.9415 -6.88506,-9.9013 -3.75902,-4.0114 -8.57974,-7.7371 l 8.97044,-4.9935 q 4.75586,3.6092 8.28189,7.7503 3.64252,4.0763 7.20931,10.4838 4.92866,8.8539 5.14338,17.7377 0.14987,8.7674 -4.8165,16.5677 -5.14773,7.7488 -15.51615,13.5205 -10.25193,5.7069 -19.47206,6.414 -9.28497,0.5906 -16.68303,-3.3789 -7.46292,-4.0861 -12.06732,-12.3575 z m 8.45279,-4.5528 q 4.0856,7.3395 11.26154,8.9911 6.9946,1.5999 15.8365,-2.2538 l -17.70426,-31.8043 q -7.8571,4.5263 -10.73969,10.8615 -2.99909,6.4001 1.34591,14.2055 z m 31.03371,-83.428 q 5.0994,12.3196 -0.34149,23.23 -5.56409,10.9613 -22.56516,17.9985 -17.00107,7.0372 -28.68445,3.215 -11.85756,-3.8944 -16.95696,-16.214 -3.16163,-7.6382 -2.31689,-13.6157 0.79375,-6.1007 3.58437,-10.8634 l -0.30596,-0.7392 q -1.55056,0.7861 -4.47748,2.4306 -3.10111,1.5722 -4.94905,2.3371 l -26.36398,10.9127 -4.48748,-10.8412 93.62908,-38.7555 3.62058,8.7469 -8.2072,5.2731 0.20398,0.4928 q 5.41252,1.2229 10.40899,4.9269 4.99647,3.704 8.2091,11.4654 z m -9.70724,1.9978 q -4.33449,-10.4717 -11.73531,-12.3146 -7.57502,-1.9152 -19.15545,2.8783 l -1.97114,0.8159 q -12.31962,5.0994 -17.16621,11.8675 -4.96979,6.8192 -0.43132,17.7837 3.62057,8.7469 12.47854,10.2753 8.68378,1.4562 20.38741,-3.3883 11.82684,-4.8954 16.57144,-11.9099 4.69361,-7.1378 1.02204,-16.0079 z m -50.88028,-106.8799 q 12.29429,-3.0486 21.36746,4.1802 9.07316,7.2287 12.82774,22.3701 1.92543,7.7648 2.39732,14.6538 0.47189,6.8889 -0.50766,11.8024 l -11.12957,2.7597 q 0.91536,-5.1723 0.89695,-12.4484 -0.0505,-7.4055 -1.87967,-14.7821 -2.56723,-10.3531 -7.86267,-14.5348 -5.32753,-4.3112 -12.18646,-2.6104 -4.52947,1.1232 -7.15404,3.8346 -2.62457,2.7113 -4.0255,8.1415 -1.56243,5.3327 -2.45307,14.4827 -1.35042,12.8356 -6.05402,20.4584 -4.73569,7.4934 -15.47703,10.1569 -7.37657,1.8292 -13.48374,-0.6402 -6.23658,-2.4373 -10.7203,-8.3314 -4.5158,-6.0235 -6.66586,-14.6943 -1.89334,-7.6354 -2.04222,-14.3296 -0.14888,-6.6943 0.89695,-12.4485 l 10.86338,1.1527 q -0.88327,5.3017 -0.89484,11.3489 -0.0437,5.9178 1.46459,12.0002 2.15006,8.6707 6.99413,12.1402 4.71466,3.5015 10.7971,1.9933 4.65889,-1.1553 7.28346,-3.8667 2.62457,-2.7113 3.99235,-7.7211 1.36779,-5.0098 2.35364,-13.2218 0.95482,-8.8911 3.0691,-15.3224 1.95277,-6.5285 6.03509,-10.563 4.05022,-4.1638 11.29739,-5.9609 z m -51.4286,-26.2843 q -1.24337,-9.1156 1.83695,-16.1296 3.0623,-7.146 9.85981,-11.572 6.64739,-4.54 16.2914,-5.8555 l 7.00181,-0.955 6.61329,48.4842 q 11.98595,-1.904 17.53434,-8.5818 5.39826,-6.7919 3.95667,-17.3606 -0.91902,-6.7376 -2.81078,-11.7277 -2.04189,-5.1042 -5.1767,-10.3285 l 10.17245,-1.3875 q 3.11679,5.0921 4.89446,10.2324 1.90978,5.1222 2.90087,12.3882 1.36952,10.0404 -1.66271,18.3934 -3.05025,8.221 -10.51429,13.6799 -7.61416,5.3447 -19.37192,6.9485 -11.62566,1.5857 -20.47114,-1.1102 -8.86351,-2.8281 -14.31029,-9.2172 -5.46481,-6.5212 -6.74422,-15.901 z m 9.52992,-1.1653 q 1.13525,8.3229 7.21849,12.4721 5.9331,4.0352 15.57114,3.6625 l -4.91943,-36.0659 q -8.96544,1.3574 -13.95543,6.2096 -5.1221,4.8703 -3.91477,13.7217 z m -14.74278,-66.192 q -0.34767,-13.06201 5.21688,-19.47899 5.56455,-6.41698 18.09341,-6.75045 l 48.64932,-1.29489 0.22704,8.53029 -10.06941,2.53548 0.0142,0.53314 q 5.98875,4.50891 8.9261,9.63256 2.93382,4.99036 3.17505,14.05376 0.25898,9.7299 -4.63559,16.2624 -5.02786,6.5361 -15.9573,6.827 -10.66286,0.2838 -16.61765,-7.9606 -6.08807,-8.241 -7.08596,-25.6872 l -0.72269,-12.11837 -4.26514,0.11353 q -8.93015,0.23769 -12.2927,4.19522 -3.36255,3.95752 -3.17453,11.02167 0.149,5.59805 2.01653,10.61675 1.73424,5.0223 3.98388,9.3639 l -8.70107,3.8329 q -2.6566,-4.5976 -4.5596,-10.9492 -2.03629,-6.348 -2.22076,-13.2789 z m 38.02749,-4.48005 q 0.88791,13.31435 4.75827,18.41315 3.86681,4.9656 10.66439,4.7846 5.99786,-0.1596 8.70107,-3.8328 2.69967,-3.8065 2.54712,-9.5378 -0.24124,-9.06344 -5.33246,-14.93004 -5.2245,-5.86305 -15.62079,-5.58633 l -6.39772,0.17028 z m -36.03302,-67.947 q 0.1232,-1.99619 0.529,-4.24212 0.28092,-2.38722 0.78694,-4.09262 l 10.68911,2.12919 q -0.50602,1.7054 -0.9036,3.81825 -0.38936,1.97976 -0.50436,3.84288 -0.33676,5.45627 2.42838,10.43606 2.63206,4.97157 7.90763,8.23609 5.1507,3.12322 12.33701,3.56677 l 38.06081,2.34913 -0.72281,11.71101 -71.33075,-4.40256 0.59139,-9.58174 13.12395,-0.52585 0.0329,-0.53232 q -5.64196,-3.82148 -9.56374,-9.54059 -3.92179,-5.71911 -3.46182,-13.17158 z m 78.31008,-27.78873 q -1.32184,9.3739 -6.1932,16.2275 -4.85274,6.72156 -13.50213,9.81076 -8.63078,2.95716 -21.17332,1.1885 -13.07066,-1.84313 -20.64194,-7.35429 -7.57129,-5.51117 -10.35749,-13.44458 -2.76758,-8.06543 -1.42712,-17.57136 0.76331,-5.4131 2.65902,-10.26256 1.76368,-4.86808 3.79482,-7.81332 l 9.13528,4.9238 q -1.63506,3.00109 -3.28703,7.07701 -1.65197,4.07591 -2.17326,7.77267 -2.94156,20.86023 23.85988,24.63958 12.8066,1.80589 20.37946,-2.24302 7.45944,-4.19955 8.87437,-14.23359 0.81917,-5.80918 0.24531,-10.33362 -0.55525,-4.65647 -1.75031,-8.59525 l 10.29809,1.45216 q 1.3457,3.82537 1.65551,8.31258 0.46046,4.3738 -0.39594,10.44703 z m -65.14352,-49.19064 q 5.17305,1.29763 9.53726,3.0797 l 0.19465,-0.77596 q -4.45891,-4.69256 -5.74736,-11.06417 -1.25601,-6.50094 0.43091,-13.22591 3.17921,-12.67397 10.84715,-17.48623 7.53861,-4.8447 20.85922,-1.50329 l 45.13485,11.32188 -2.82236,11.25138 -44.3589,-11.12723 q -16.68308,-4.18488 -20.57599,11.33427 -2.91968,11.63936 2.57296,17.69094 5.39577,5.88981 17.55243,8.93926 l 35.82337,8.98613 -2.8548,11.38071 -98.28794,-24.6551 2.8548,-11.38071 z m 81.2481,-126.32948 q 16.31748,6.94329 21.72374,19.09705 5.45846,12.03106 -0.54514,26.14016 -3.70657,8.71084 -10.55607,13.91079 -6.91998,5.02506 -16.1972,5.71434 -9.3999,0.63709 -20.31911,-4.00918 -16.31748,-6.94329 -21.65326,-18.92215 -5.33577,-11.97886 0.66783,-26.08796 3.81098,-8.95621 10.73096,-13.98127 6.84951,-5.19995 16.07451,-5.76655 9.15453,-0.74149 20.07374,3.90477 z m -21.14311,49.68857 q 11.65535,4.9595 20.45746,3.34354 8.73162,-1.79085 13.01245,-11.85125 4.22862,-9.93772 -0.53541,-17.47114 -4.88672,-7.58563 -16.54206,-12.54513 -11.65534,-4.95949 -20.26429,-3.11644 -8.60894,1.84306 -12.88976,11.90346 -4.28083,10.0604 0.41272,17.41893 4.69355,7.35853 16.34889,12.31803 z m 10.05512,-104.95521 q 6.3947,-11.08814 15.08723,-13.61698 8.57704,-2.59544 20.58919,4.33215 l 40.31003,23.24741 -5.7952,10.04863 -39.61702,-22.84774 q -14.89969,-8.59288 -22.89307,5.2673 -5.92842,10.27963 -2.41814,17.53726 3.51029,7.25762 14.36743,13.5191 l 32.10942,18.51799 -5.86181,10.16414 -61.90881,-35.70376 4.72942,-8.2006 9.29756,3.36111 0.33305,-0.5775 q -3.11916,-5.80072 -2.36506,-12.44602 0.63859,-6.71191 4.03578,-12.60249 z m 51.26137,-95.37491 q -9.67626,11.89453 -7.26543,25.19985 2.41084,13.30531 16.27055,24.58026 13.75629,11.1908 26.95651,11.44456 13.18093,0.0662 23.53032,-12.6558 3.95465,-4.86125 6.66114,-9.87847 2.70649,-5.01722 4.83098,-10.16414 l 8.06759,6.56302 q -1.81419,5.39935 -4.70826,10.43587 -2.80992,4.93308 -7.77426,11.03549 -9.17141,11.27395 -19.96811,15.03803 -10.79671,3.76408 -22.49469,0.60728 -11.61384,-3.26023 -23.19808,-12.68407 -11.17052,-9.08727 -16.37032,-20.02066 -5.2191,-11.12096 -3.49802,-22.95563 1.61764,-11.91881 10.87319,-23.29619 9.50798,-11.68767 20.91994,-16.84191 l 4.83165,10.11825 q -4.32813,2.15109 -9.01909,5.38205 -4.60683,3.12754 -8.64561,8.09221 z M 615.6382,534.71118 q 12.28559,12.78803 12.49057,26.08838 0.30113,13.20798 -10.7562,23.83086 -6.82669,6.55847 -15.16706,8.65453 -8.33658,1.90754 -17.14052,-1.09787 -8.89631,-3.10155 -17.1175,-11.65896 -12.28559,-12.78803 -12.49434,-25.89986 -0.20876,-13.11182 10.84856,-23.7347 7.019,-6.74322 15.35559,-8.65076 8.34036,-2.09606 17.04815,1.00172 8.71157,2.90926 16.93275,11.46666 z m -38.941,37.41101 q 8.77542,9.13431 17.50588,11.10095 8.73423,1.77811 16.61858,-5.79646 7.7882,-7.4822 6.36141,-16.28066 -1.51915,-8.8946 -10.29458,-18.02891 -8.77542,-9.13431 -17.41728,-10.81627 -8.64185,-1.68197 -16.5262,5.89261 -7.88436,7.57457 -6.45379,16.1845 1.43056,8.60993 10.20598,17.74424 z m 88.71533,-119.48956 q 9.9716,-6.91262 18.47286,-5.18078 8.4253,1.62226 16.32544,13.01837 l 26.51103,38.24271 -9.53328,6.60877 -26.20718,-37.8044 q -9.64728,-13.9164 -21.59128,-5.63645 -8.54709,5.9251 -8.85441,13.43884 -0.19774,7.43779 6.33506,16.86149 l 22.48501,32.43508 -9.53329,6.60877 -26.20718,-37.8044 q -9.64728,-13.9164 -21.70086,-5.56049 -8.87582,6.15299 -8.47459,13.98674 0.40122,7.83375 7.54173,18.13408 l 21.11767,30.46267 -9.64286,6.68473 -40.71608,-58.73379 7.78003,-5.39336 6.9698,7.01167 0.54789,-0.37981 q -0.45099,-6.50135 2.63203,-11.88335 3.11663,-5.56754 8.37638,-9.21375 13.80682,-9.57132 24.80744,-2.59589 l 0.54789,-0.37982 q -0.53569,-7.09158 2.83372,-12.99659 3.47898,-5.98097 9.17703,-9.93104 z m 67.79223,-36.41452 q 11.91009,-5.69113 23.09487,-0.83933 11.30508,4.79431 19.29566,21.51655 7.87561,16.48163 4.61859,28.52986 -3.13671,11.99075 -15.1671,17.73937 -7.45884,3.56414 -13.71348,3.15409 -6.19182,-0.58785 -10.74088,-2.99509 l -0.72183,0.34492 q 1.21788,1.9302 2.95313,4.94312 1.73524,3.01293 2.82748,5.29871 l 12.64697,26.46685 -10.58675,5.05879 -44.60929,-93.35582 8.66188,-4.139 5.64014,8.09235 0.48122,-0.22995 q 0.87527,-5.5903 4.18746,-10.71956 3.31218,-5.12925 11.13193,-8.86586 z m 2.32912,9.82227 q -9.86492,4.71387 -11.31089,12.20238 -1.32566,7.43102 3.83743,18.85456 l 0.97727,2.04516 q 5.69113,11.91009 12.64511,16.56694 7.0168,4.47906 17.60354,-0.57972 5.89489,-2.81683 8.07218,-7.84711 2.2976,-5.08776 1.45779,-11.48403 -0.77699,-6.57406 -4.22616,-13.79229 -5.28873,-11.06796 -12.78141,-15.61517 -7.37237,-4.6047 -16.27486,-0.35072 z m 92.97799,-44.72938 22.73425,67.75405 -9.10129,3.05386 -4.65473,-8.4235 -0.50563,0.16966 q -1.50516,6.41187 -6.47158,10.89108 -5.00884,4.3528 -11.58199,6.55836 -12.26147,4.11422 -20.40647,0.37783 -8.18743,-3.8628 -12.51372,-16.7563 l -14.88754,-44.3688 11.25021,-3.7749 14.63305,43.61035 q 5.42907,16.18008 20.47149,11.13274 11.2502,-3.77491 13.4273,-11.53735 2.30351,-7.80485 -1.68347,-19.68709 l -11.83368,-35.2675 z m 51.66741,52.85113 q 2.59494,-0.61431 5.22747,-1.64858 2.60182,-1.16402 4.16567,-2.08231 l 2.05795,8.69303 q -1.60144,1.33825 -4.85199,2.65585 -3.21984,1.44734 -6.33376,2.18452 -5.44937,1.29006 -10.55027,0.57937 -5.00188,-0.87115 -8.96208,-4.86628 -3.96019,-3.99514 -5.95672,-12.42868 l -9.58332,-40.481 -9.86076,2.3344 -1.29006,-5.44936 8.91545,-6.90626 1.03954,-15.86618 6.74683,-1.59722 3.77804,15.95885 20.11075,-4.76094 2.08868,8.82278 -20.11075,4.76094 9.52189,40.22151 q 1.50507,6.35759 5.22642,8.76505 3.82039,2.247 8.62102,1.11051 z m 27.48744,-70.40895 q 9.09979,-1.35404 16.15067,1.64083 7.18276,2.97525 11.69097,9.71848 4.62046,6.59174 6.05299,16.21905 l 1.04006,6.98969 -48.40032,7.2019 q 2.04952,11.96193 8.79422,17.42877 6.85696,5.31534 17.40744,3.74545 6.72593,-1.00081 11.69267,-2.95307 5.07901,-2.10376 10.26478,-5.30181 l 1.51103,10.15484 q -5.0539,3.17843 -10.17215,5.01842 -5.09862,1.97188 -12.35208,3.05118 -10.02296,1.49141 -18.41227,-1.43911 -8.25743,-2.95013 -13.80655,-10.34729 -5.43686,-7.54866 -7.18337,-19.28607 -1.72689,-11.60553 0.86137,-20.48312 2.72013,-8.89721 9.04262,-14.42122 6.45437,-5.54364 15.81792,-6.93692 z m 1.28102,9.51505 q -8.3085,1.2363 -12.38352,7.3695 -3.96277,5.98169 -3.47303,15.61449 l 36.00351,-5.35728 q -1.46629,-8.94828 -6.3788,-13.87895 -4.93213,-5.06254 -13.76816,-3.74776 z m 70.95082,-16.07802 q 1.99678,-0.1133 4.27491,0.0245 2.40369,-0.003 4.1569,0.29833 l -0.85252,10.86572 q -1.7532,-0.30117 -3.89821,-0.44656 -2.01189,-0.15294 -3.87555,-0.0472 -5.45788,0.30967 -10.07644,3.64331 -4.62611,3.20053 -7.24505,8.82457 -2.49338,5.48337 -2.08552,12.67179 l 2.16016,38.072 -11.71446,0.66467 -4.04841,-71.35173 9.58456,-0.54382 2.07138,12.97012 0.53248,-0.0302 q 3.12876,-6.05361 8.34493,-10.62308 5.21618,-4.56948 12.67084,-4.99245 z"
           id="text223"
           style="-inkscape-font-specification:'Arial Rounded MT Bold, ';stroke-width:1.862;stroke-linecap:square;stroke-linejoin:round;stroke-dasharray:14.896, 3.724, 1.862, 3.724"
           inkscape:label="full form"
           aria-label="Club for Updated Search on Computer" />
        <circle
           style="opacity:0.4;fill:none;stroke-width:1.53839;stroke-linecap:square;stroke-linejoin:round;stroke-dasharray:12.3071, 3.07679, 1.53839, 3.07679"
           id="path223"
           cx="-1013.9366"
           cy="964.28223"
           transform="rotate(-91.943395)"
           r="550.69312" />
      </g>
    </g>
  </g>
</svg>
