<svg id="Layer_1" data-name="Layer 1" xmlns="http://www.w3.org/2000/svg" viewBox="0 0 1269.94 1728"><defs><style>.cls-1{fill:#fff;}.cls-2{fill:#ef8333;}.cls-3{fill:#01aeee;}.cls-4{fill:#fdfefe;}</style></defs><path class="cls-1" d="M1282.69,1.62c0,356.1.89,712.21-.52,1068.3-.44,108.87-29.11,212.17-79.31,308.92-62.29,120.07-151.44,214.52-270.82,279.23-72.68,39.41-150.34,62.91-232.86,69.33-166.24,12.95-313.5-35.05-440.81-141.81C136,1483,62.2,1350.8,29,1195.28a701.55,701.55,0,0,1-14.3-107.54c-.09-1.61.41-3.46-1-4.71a1.28,1.28,0,0,1-.43-1Q13.18,541.77,13,1.47,647.86,1.71,1282.69,1.62Z" transform="translate(-13.03 -1.47)"/><path class="cls-2" d="M1250,46.07c0,337.78.84,675.56-.5,1013.33-.41,103.27-27.61,201.25-75.22,293-59.09,113.89-143.65,203.48-256.88,264.86-68.95,37.38-142.61,59.67-220.89,65.77-157.68,12.27-297.36-33.26-418.12-134.52-116.07-97.32-186.07-222.71-217.61-370.22a664.84,664.84,0,0,1-13.57-102c-.09-1.66.48-3.59-1.39-4.77q0-509.34-.14-1018.68c0-5.65,1.27-6.92,6.91-6.92Q651.33,46.17,1250,46.07ZM647.89,76Q366.84,76,85.76,76c-11.5,0-10-1.42-10,9.93q0,473.15-.15,946.29c0,47.35,4,94.14,13.83,140.41,27.81,131,88,244.39,187,335.25C392,1613.84,528.31,1664,685.58,1654.54a512.47,512.47,0,0,0,150-32.22c97.9-36.74,179.13-96.77,244.31-178.19,91.58-114.4,139.56-246,140.53-391.82,2.13-322.19.66-644.41.66-966.62,0-9.73,0-9.74-9.56-9.74Z" transform="translate(-13.03 -1.47)"/><path class="cls-3" d="M654.69,110.77q264.15,0,528.29-.18c7.5,0,9.47,1.64,9.46,9.35q-.33,464.5-.19,929c-9.69,207.93-92.22,376.67-268.42,493.47-71.05,47.1-150.52,72.2-235.82,77.43-137.75,8.44-259.24-33.26-363.9-122.23-107.7-91.56-170.63-209.43-197-347.57-7.44-39-10.54-78.42-10.52-118.19q.27-455.85-.1-911.7c0-8.1,2.34-9.57,9.87-9.56Q390.55,110.93,654.69,110.77Zm515.62,671.58q0-148.7.14-297.39c0-6.7-1.45-8.76-8.51-8.74q-141.11.39-282.22.08c-21.52-.05-43.13,1.84-64.54-2.18-2.87-.54-6,0-9,.34-20.78,2.3-36.89,13.42-51.34,27.51-17.39,17-30.55,37.15-43.32,57.58-2.87,4.6-6.1,6.24-11.51,6.2q-50.79-.36-101.6,0c-4.67,0-7.07-1.44-9.19-5.6-9.89-19.5-21.24-38.09-35.64-54.68-16.19-18.67-35.63-30.58-60.9-33.63-28-3.38-56-3.91-84.07-3.81-86.8.34-173.53,3.24-260.24,6.93-7.77.33-9.82,2.24-9.81,10.07q.34,273.3.06,546.6c-.09,48.16,4.63,95.69,15.89,142.43,32.58,135.24,100.89,248,214.13,330.46,115.7,84.2,245,113,385.43,83.72,120.86-25.16,217.54-90.39,292.77-187.15,82.57-106.21,122.05-227.9,123.3-362C1171,953.52,1170.31,867.93,1170.31,782.35ZM655,132.84q-253.6,0-507.2-.16c-7.08,0-9.22,1.51-9.2,9q.4,146.81,0,293.6c0,7.06,1.47,9.27,9,9.25,93.82-.28,187.63-.11,281.44-.25,17.27,0,34.47-2.38,51.83-.83,42.46,3.79,76.82,21.49,100.73,57.45,7.06,10.63,13.28,21.83,19.82,32.81A19.39,19.39,0,0,0,615,543.29c22.36,4.41,44.83,4.21,67.4,2.17,8.21-.75,14.1-4.16,16.94-12.35,1.14-3.26,3.29-6.19,5.11-9.18,26.26-43.37,63.57-69.71,115-72.94,26-1.63,52.12-1.95,78.19-2.08q132.06-.68,264.12-.64c6.63,0,8.72-1.35,8.7-8.46q-.39-148.67-.19-297.35c0-10.65,1.46-9.6-9.62-9.6Q907.83,132.83,655,132.84Z" transform="translate(-13.03 -1.47)"/><path class="cls-3" d="M1144.78,831c0,77.29,3.63,154.79-.73,231.83-10,177.76-82.48,324.25-229.51,429.21-64.65,46.15-137.49,72.56-216.84,79.61-130.39,11.58-245.31-26.65-344.36-111.13-95.63-81.56-152.51-186.36-178-308.81C167,1111.59,163.49,1071,163.55,1030q.31-217.2-.09-434.39c0-7.08,1.41-9.17,8.88-9.14q113.64.47,227.27,0c7.12,0,9.11,1.51,9.09,8.92-.24,148.81-1.14,297.63.19,446.44.76,85.28,29.61,160.79,90.74,221.77,42.13,42,93.2,65.56,153.4,66.12,51.92.49,97.85-17.08,137.88-49.67,53.88-43.85,85.2-101.53,100.9-168.37a346.87,346.87,0,0,0,8.84-79.79q-.09-218.32-.16-436.65c0-6.53,1.19-8.82,8.41-8.79q114,.48,228,.08c6.5,0,8.31,1.37,8.28,8.14-.27,78.79-.17,157.59-.17,236.39ZM276.27,925.48l-.11-.12c1.06,4.57,2.21,9.12,3.15,13.72s2.46,7.24,8,5.28c5.88-2.07,9.81,1,11.32,6.6,2.5,9.29-7.05,21.16-16.77,20.94-12.53-.28-25.26.48-37.51-1.56-18.12-3-29,4.39-35.94,20.11-.85,1.93-4,3.21-2.47,5.74,1.33,2.25,4.1,1.33,6.23,1.36,35.09.62,70.18,1.33,105.28,1.54,6.58,0,8.93,1.27,8.68,8.43-1.3,37.51-1.11,75,7.25,111.88.79,3.48-.85,5.16-3.93,5.8-13,2.68-26,5.3-39.29,8a7.26,7.26,0,0,1,.43-2c.66-1.06,1.48-2,2.17-3.06,18.9-28.72,23-58.26,4.94-89.05-5-8.43-15-14-23-12.64-10.05,1.68-17.13,8.49-19.43,18.31-2.57,11-1.35,21.72.86,32.61,3.06,15.06,14.49,23.4,29.44,11.59.17-.14.73.19,1.2.33a25.33,25.33,0,0,1,0,4.53c-5.94,31.52-26.41,50.67-54.18,63.6-2.29,1.07-5.23.69-6.36,4.17-2,6-4.58,11.79-7.3,18.61,35.88-9.59,70.73-18.87,105.56-28.24,17-4.58,17.49-4.32,19.55,13.06s-1.92,23.74-18.57,29.82q-34.57,12.62-69.1,25.3c-2.22.81-5,.74-5.68,4-2.12,10.52-4.86,21-4.45,32.59,35.92-15.56,71.07-30.52,105.94-46.1,7.2-3.22,10-1.74,12.49,5.21,2.38,6.71,5.16,13.46,10.4,20a70.46,70.46,0,0,0,1.6-11c.15-7.29,6-14.18,1.76-21.65-3.37-5.87-1.33-10.6,3.68-13.44,7.64-4.35,7.25-11.44,8.39-18.52-10.48,2.92-19.65,7.8-30.19,12,3.77-12.93.51-24.4-2.47-36-10.1-39.26-16.14-79-15-119.72.82-29.07,2.61-58.15,2.5-87.22-.14-39.65,1.91-79.25,1.62-118.89-.05-7,3-10.09,9.61-10.35,2.74-.1,5.46.33,6.7-3.18,1.88-5.33,4.05-10.56,6.32-16.4-36.77-.23-72.79-2.34-110.19-1.48,9.57-11.78,15.46-23.75,21.66-36.23,2,4.73,3.4,8.68,5.34,12.32a77.35,77.35,0,0,0,6.84,10.67c7.43,9.68,21.37,12.25,30.74,3.11,8.8-8.58,13.82-19.41,20.2-29.49,2.57-4.06,2.77-7-.07-11.27a134,134,0,0,1-12.76-23.62c-1.23-3-1.4-4.6,1.43-7.13,10.18-9.06,9.13-30.37-1.48-39-6.12-5-14.75-3.93-18.86,2.77-4.89,8-8.25,16.79-7.4,26.22,1.61,17.86,4.48,35.52,13.48,51.49,1.38,2.45,3.1,4.65-.17,7.08-3.11,2.31-5.65,1.33-8-1-3.43-3.41-5.4-7.73-7-12.21a121.48,121.48,0,0,1-4-70.59c-7.5,6.39-11.69,13.52-16.93,19.68-8.45,9.94-16.3,19.56-17.53,34.23a111.34,111.34,0,0,1-15.78,47.64c-5.65,9.44-12.48,16.44-25,13,.53-1.68,1.2-3.53,1.7-5.42,4-15.42,4.48-30.48-4-44.85-3.26-5.57-7.89-7.82-14.17-7.91s-10.17,3.33-12.67,8.68c-9.36,20-8.63,39.45,3.45,58.1,2.07,3.21,2,4.85-.36,8.18C189,817.56,182,832,171.72,844.34c-1.83,2.21-1.46,5.63.68,8.35,2.56,3.25,5.27,1.89,8,.48,1.76-.92,3.42-2,5.09-3.08,10.74-6.88,16.1-18.18,22.76-28.32,2.12-3.22,3.82-4.88,8-4.84,35.35.37,70.7-.32,106.05,1.31,5.92.28,6.8,2.31,6.67,7.54-.69,26.54-1.05,53.09-1.43,79.64-.27,18.56,0,37.14-.69,55.69-.5,13.2-1.06,13.18-14.21,11.15-.42-.06-.79-.45-1.58-.93a33.22,33.22,0,0,1,1.91-3c10-12.75,11.25-27.89,1.87-40.54-3.32-4.46-2.45-6.84-.37-10.88,10.61-20.57,12.84-41.37-1-61.41-13.23-19.19-40.09-18.41-51.76,1.2-8.89,14.94-11.12,31.46-9.19,48.32C254.36,921.35,262.79,928,276.27,925.48Zm755.58,9,.13.14c-1.23-4.8-2.8-9.55-3.6-14.42s-3-6.08-7.64-4.54c-4.83,1.59-9.14.31-11.07-4.77-4-10.65,4.62-22.89,16-23.05,18.3-.25,36.62.82,54.89-.91,1.92-.18,4.36.52,5.59-1.44,5.06-8,9.93-16.15,15.32-25-4.19,0-7,0-9.7,0-35.35.38-70.71-.19-106,1.6-4.92.25-6.54-1.17-6.41-6.21.21-7.75.2-15.08,4.86-22.13,4.09-6.19,5.36-13.73,5.85-21.37.68-10.47,1.25-21.1,6.38-31.34,9.75,17.21,18.34,34.26,29.94,49.74,6.64-8.17,12.76-15.75,19-23.28,2-2.38,3.39-4.81,3.26-8.09-.21-5.27.73-10.45,1.28-15.68,2.68-25.43,14-46,34.15-61.55,7.27-5.6,12.2-12.69,17.07-21.25h-8.69c-35.12.05-70.24,0-105.36.32-6,.06-8.43-1.1-7.94-7.65.62-8.35.15-16.79.15-26.92-5.79,6-8,12.11-11.89,17-5.23,6.63-6.21,14-6.3,22.33-.52,47.93,1.93,95.83,1.68,143.75-.26,49.68,1.31,99.32,2.55,149,.37,14.8.23,29.61.5,44.42.09,4.49-1.39,8.43-6.12,6.76-7.21-2.55-10.29,1.66-13.37,6.28-1.19,1.78-4.17,3.48-3.11,5.59,1.34,2.65,4.75,2.15,7.45,2.17,7.68.06,15.36,0,24.1,0-3.75,4.68-6.61,8.7-8,13.44-1.49,5-3,10-4,15.13-1.29,6.33-1.94,12.79-3.21,19.12-17.28,86.33-55.54,161-122.12,220-22.2,19.64-47.13,35-74.11,47.25-3.14,1.42-5.41,1.56-8.14-.8-2.56-2.22-4-4.71-3-7.86,3.21-10.25,6.77-20.48,14.76-28.13,17.85-17.07,40-24.45,63.85-28.2,10-1.57,20-3.53,31.12-8.15-8.49-2.27-14.26-6.3-21.81-5.6a269.26,269.26,0,0,0-62.55,13.3c-26.12,8.9-42.08,26.35-50,52.2-2.83,9.26-.58,15.36,7.76,20,1.18.67,3.15.64,2.84,2.93-6.8,2.09-13.61,4.35-20.52,6.21-3.07.82-7.56,1.83-8.75-1.8-3.24-9.9-12.38-11.34-20.63-16.82,1.86,17.11,6.2,32.18,9.9,49-8.85-6.65-16.12-12.26-23.55-17.64-3.63-2.64-7.63-5.58-12.3-4.62-11.38,2.34-23.23,4-32.15,12.51-3.3,3.16-5,2.6-7.51-.92-6-8.55-13.68-15-24.22-17.54a300.42,300.42,0,0,1-85.18-34.85,282.73,282.73,0,0,1-59.53-47.56c-2.46-2.58-2.91-4.54-1.59-7.86,1-2.54,1.61-4.56,4.72-4.79,16.29-1.22,31.8.4,45.52,10.64a124.48,124.48,0,0,1,35.7,41.87,128.07,128.07,0,0,0,18.35,26.68c-.42-7.87,1.45-14.14-1.23-20.08-7.6-16.85-16.38-33-27.67-47.77-17.23-22.55-38.17-37.91-68-37.3-6.17.13-12.23-.49-17.86,3.77-5.34,4-3.84,9.61-4.52,15.21-9.38-8.8-15.55-19.23-23.64-29.19-.83,15.73-3.81,30.8,10.24,41.69,3.12,2.42.54,4.15-1.41,5.86-20.86,18.36-41.41,37.1-62.67,55-8.23,6.93-13.14,13.51-8.09,24.38,1.77,3.79,2.52,8,3.83,12,2.85,8.71,2.92,8.74,9.11,2.46q37-37.5,73.89-75.12c3.42-3.51,5.26-3.51,8.81,0a316.68,316.68,0,0,0,66.42,49.71c7.19,4,14.5,7.91,21.75,11.85-.23.64-.45,1.28-.67,1.92-34.42-6.76-68.65-14.42-103.1-24,1.53,11.25,3,21.33,4.22,31.43a10.32,10.32,0,0,0,4.18,7.62c7.81,5.59,14.11,12.79,20.79,19.55,17.74,18,31.58,38.34,39,62.89,2.87,9.49,9.27,17.39,15,26.42,1.1-2.48,1.87-4,2.45-5.56,13-35.42,26.13-70.82,38.92-106.33,1.48-4.1,2.64-4.86,6.81-3.44,9.61,3.29,19.42,6,29.23,8.69,7,1.92,13.21,4.55,16.12,12.33-7.29,3.4-15.38,5.24-22.18,10-12.18,8.58-11.87,23.91,1.34,30.93,12.37,6.56,25.37,7.39,37.81,0,3.62-2.14,5.83-1.87,8.95.52,12.18,9.35,25.35,9,38.85,3.28,5.74-2.42,9.27-6.76,9.63-13.08.37-6.52-2.48-11.59-8.06-15s-11.13-6.52-16.7-9.76c5.61-5.71,12.22-7.36,18.7-3.41,12,7.3,24.59,14.5,22.76,31.85a5.45,5.45,0,0,0,.5,2.19c2.83,7.82-.08,12.19-7.5,15.81-16.12,7.87-32.35,15.38-49.5,20.69-5.14,1.59-6.1,3.58-2.88,8.07a129.3,129.3,0,0,1,8.08,13.44c2.86,5.26,6.54,7.62,13,7.31,17.55-.85,34.55,2.64,49.27,12.37a41,41,0,0,0,24.22,7.41c12-.08,11.86.47,9.15-11.36-8.85-38.73-17.51-77.51-26.41-116.22-1.14-4.94-.29-7.36,5.07-8.45a127.17,127.17,0,0,0,19.28-5.58c5.75-2.15,8.29-1.23,10.44,5.14,9.63,28.44,19.92,56.67,30,85,.81,2.27,1.33,5.59,4.24,5.6,11,0,22,3.45,33.67,1.27-.74-1.5-1.18-2.34-1.56-3.2-14.87-33.14-29.67-66.32-44.69-99.39-2-4.44-1.75-6.28,3.09-8.59a311.75,311.75,0,0,0,85.11-59c1.2-1.19,2.13-3.79,5.47-1.79-18.4,30.31-37.84,59.87-59,88.9,7.14,1.86,13.34,3.44,19.52,5.1,10,2.68,19.08,2.29,28.43-3.59,10-6.32,21.31-10.67,32.57-14.71,16.14-5.8,32.9-9.1,49.88-7.57,12.24,1.1,23.51-2,35.31-3-.19-1.25-.08-1.91-.35-2.15-29-25.85-57.88-51.76-87-77.38-4.14-3.63-3.82-6.06-.53-9.63,4.06-4.41,8.53-8.68,11.56-13.76,3.41-5.71,6.24-4.49,10.32-1.28,8.84,6.94,18.62,12.86,26.63,20.63,12.44,12.09,24.9,15.34,39.71,4.82,2.57-1.83,5.86-2.71,8.9-3.78,3.62-1.26,4.52-3.5,3.07-6.92a115.93,115.93,0,0,1-8.06-33.2c-1.41-13.5-1.51-27.11,2-41.51,14.21,14.24,31.48,18.66,49.61,22.21,14.79,2.89,26,1,32.65-13.72.78-1.73,3.33-3,2.29-5.13-1.24-2.52-4-1.14-6.06-1.26-20.55-1.2-38.94-7-53.55-22.67-7.77-8.32-15.09-16.89-20.88-26.75-8.78,7.62-17.11,14.81-25.37,22.08-1.83,1.6-3.71,3-4,6-2,20.88-5.8,41.62-4.57,62.74.12,2-.08,4-.11,6-.08,4.64-1.65,5.76-5.76,2.9-7.39-5.14-14.81-10.26-22.53-14.87-4.41-2.63-5-4.38-2.09-9.13,22.09-36,39.28-74.28,49.66-115.41,1.41-5.58,2.88-11.14,4.37-16.88,2.86,1.41,3.4,3.46,4.28,5.19,6.62,13,17.28,20.42,31.6,22.23,9,1.13,17.89-.66,26.77-2.2,14.9-2.58,28-.17,30.27,20.15.68,6.18-1,11.9-.36,17.79.35,3.33-2.37,8.46,3.13,9.43,4.8.85,7.58-3.08,9.58-7a20.07,20.07,0,0,0,1.76-4.9c3.73-17.83,2.47-35.36-4.49-52.15-6.08-14.69-16.46-19.55-32.37-17.91-13.66,1.41-27.36,3.06-41.18,2.37-14.52-.72-22-5.49-23.55-16a42.23,42.23,0,0,1,5.18-27.49c4.59-8,12.24-11.12,21.53-10.35,26.4,2.17,52.84,4,79.26,5.88,1.67.12,3.66.73,4.84-1,6.41-9.64,13.33-19,17.62-30.75-4.25,0-7.5-.07-10.73,0-35.83.83-71.67,1.61-107.49,2.64-4.5.13-6.27-.84-6.16-5.65.14-5.74-.88-11.5-.92-17.26-.32-39.89-2.56-79.74-2-119.65.21-14.1-.06-14.11,13.89-13.22.33,0,.62.62,1.2,1.23a31.32,31.32,0,0,1-1.63,3c-10.2,15-10.4,27.59.09,42.06,2.46,3.4,2.46,5.48.56,9-9,16.71-10.3,34.21-3.46,51.95,5.77,14.93,18.14,23.7,32.48,23.22,15.4-.52,23.46-10.29,28.58-23.58a76.48,76.48,0,0,0,3.52-44.09C1052.93,936.85,1045.79,932,1031.85,934.44ZM1059,776.5c0,4.94,2.57,12.84,5,16.17,6.43,9,16.16,8.61,21.59-1,6.44-11.42,5.89-22.83-1.18-33.75-4.26-6.58-14.9-6.77-19.05-.29A39.74,39.74,0,0,0,1059,776.5Z" transform="translate(-13.03 -1.47)"/><path class="cls-2" d="M610.94,1221.85c-.23,15.39-.22,36.73-4.88,57.67-2.45,11-5.93,13.26-17.08,11.63-5.91-.87-12.05-1.18-17.5-4-10.1-5.26-18.22-10.61-19.22-24.67-3.73-52.28-13.82-103.79-21-155.65-6.17-44.44-13.09-88.82-12.71-133.89.17-20.26,6.49-39.49,9.81-59.21,6.16-36.64,11.83-73.29,9.91-110.63-1-20.2-6.32-38.62-19.14-55.09-10.25-13.15-15.94-29-18.08-45.65-1.79-13.9,6.2-21.48,20.15-19.67,12.36,1.61,22.52,8,32.23,15.24,5.23,3.9,18.48-.8,18.7-7.19.75-21.8,8.13-42.27,11.86-63.46,1-5.42,1.28-11,2.63-16.31,2.38-9.4,9.32-12.44,17.82-7.74,7.51,4.16,13.18,10.67,18.7,17.06,3.68,4.27,3.19,10,1.82,15.14a41.67,41.67,0,0,1-4.17,10.44c-5.19,8.83-8.74,17.2-4.19,28,3.6,8.55,0,17.33-5.08,24.86a18.31,18.31,0,0,0-2.82,15c2,9,6.7,11.46,14.56,6.78,5.86-3.49,11.13-7.76,12.59-15.1.72-3.66,3.59-5.31,6.71-6.47,3.52-1.3,7.1-2.45,10.7-3.49,8.46-2.46,14.53-6.27,15.35-16.59.89-11.05,7.07-19.11,18.39-22.23,5.66-1.57,9.23-5.68,12.67-10.12,3.67-4.75,7.3-9.63,11.57-13.82,7-6.85,13.07-5.25,16.4,4.12,3.61,10.14,2.72,20.26-1.13,30.15-8.66,22.22-24.79,38.69-42.29,53.9-14,12.18-28.66,23.63-46.43,30.08a4.66,4.66,0,0,0-3.17,3.73c-10.35,40.52-24.49,80-34,120.74-2.89,12.44-4.36,25.2-2.26,38.08a32.45,32.45,0,0,0,4.41,12.66c5.45,8.47,12.45,9.43,19.85,2.7,22-20,45.07-38.38,72.59-50.31,20.72-9,41.93-13.54,64.25-6a76,76,0,0,1,18.62,9.64c2.54,1.74,4,3.12,7.31-.06,7.35-7.11,22.6-7,31.48-.8s11.31,14.74,7.31,26.65c-3,8.88-8.13,16.63-13,24.51-2.89,4.66-4,9-2.22,14.79,3.74,11.92.54,23.87-2.22,35.58-2.88,12.22-8.43,23.47-13,35.1-13.9,35.06-18.56,71.32-7.48,108.14,3.13,10.41,2.68,19.46-2.31,28.79-5.43,10.17-10.49,20.53-15.82,30.74a161.59,161.59,0,0,0-17.86,60.86c-.5,5.52-.09,10.9,3,16,3.37,5.62-.18,9.56-4.41,12.7-7.18,5.31-15.62,7.82-24.08,10.19-3.36,1-6.78,1.68-10.09,2.77-7.26,2.37-10.09.81-11.15-7.05-1.63-12.17,1.45-23.92,3.81-35.69.93-4.66,1.79-9.46,3.65-13.78,7.37-17.14,3.36-34.59,1.46-51.84-2.26-20.66-5.22-41.27-11.57-61.2-.46-1.43-.91-2.86-1.44-4.26-9.28-24.62-16.83-29-43.71-18.44-17.65,6.94-28,21.4-34.74,38.57C610.61,1160.71,609.81,1188.22,610.94,1221.85Z" transform="translate(-13.03 -1.47)"/><path class="cls-3" d="M286.52,283.13c13.7-10.68,27.17-19.32,40.83-27.69,2.25-1.38,4-1.09,6.25-.1,66.15,29.43,132.41,58.64,194.61,96,19.57,11.77,38.78,24.1,55.4,40,4.36,4.16,8.66,8.43,11.79,13.62,2.27,3.76,5.34,5.19,9.48,4.1,3.93-1.05,5.44-4.14,5.93-7.87a24.68,24.68,0,0,0-2.75-14.56c-4.58-9-10.5-16.84-18.81-23q-93.82-69.9-187.38-140.13c-1-.73-1.8-1.64-3.54-3.25a391.06,391.06,0,0,1,44.47-16.32c3-.91,4.67,1.14,6.57,2.71,49.48,41,98.55,82.37,145.12,126.65,4.11,3.92,8.5,4.07,13.16,3.1,5.09-1.06,7-4.52,5.08-9.61a32.4,32.4,0,0,0-7-10.64c-32.45-34.6-61.9-71.83-93.84-106.87l-18.11-19.87c13-2.61,24.93-5,36.8-7.36,3.78-.77,4.55,2.52,6,4.56,19.22,26,37.84,52.51,59.13,76.94a230.06,230.06,0,0,0,23.87,24c2.09,1.79,4.4,4,7.33,2.43s2.28-4.77,2-7.44c-1.2-10.41-5.37-19.9-10.41-28.82-12.84-22.75-22.87-46.74-32.94-70.78-3.14-7.49-.49-8.4,5.59-8.54,3.51-.08,7-.34,10.52-.54,18.15-1,18.23-1.07,24.79,16.2,4.62,12.16,9.89,24.14,12.18,37.06,1.11,6.27,4.33,5.21,7.84,2.42s5.54-6.44,7.53-10.23c5.63-10.73,9.15-22.21,12-33.91,3-12.18,4.09-13.16,16.63-12.63,8.77.37,17.52,1.12,26.28,1.57,3.91.2,5,1.71,3,5.17-3.94,6.69-7.85,13.4-11.8,20.09l-44,74.46c-.64,1.08-1.34,2.13-1.87,3.26-2.87,6.09-1.13,15.84,3.66,17.55,6.64,2.38,9.34-3.36,12.17-7.46,23.68-34.29,49.57-66.88,75.57-99.39,5.34-6.67,10.7-9.45,19.27-6.86,6.84,2.07,14.17,2.57,22.42,4a139.15,139.15,0,0,1-16.82,21c-24.93,26.5-49.9,53-71.71,82.19-9.58,12.81-19.69,25.47-22.91,41.81a32.89,32.89,0,0,0-.75,6.69c0,4.72,2.84,5.57,6.56,3.81,4.13-1.94,7.44-5.09,10.6-8.33,38.77-39.77,81.18-75.47,124-110.64,7.94-6.51,16.51-12.24,23.67-19.67,1.62-1.68,3.33-3.06,5.93-2.28,15,4.54,30,9.24,45.23,15.61-9.51,10.74-20.1,19.06-31.31,26.64-33.46,22.6-66.83,45.33-98,71.12-20.31,16.83-40.05,34.26-56.16,55.36-7.33,9.62-13.72,19.79-16.52,31.78-.5,2.15-1.59,4.82.15,6.48,2.24,2.13,4.92.1,6.86-1.06,8-4.75,15.9-9.57,23.49-14.87,43.4-30.26,86.63-60.76,133-86.49,13.35-7.42,26.8-14.73,40.53-21.41,20-9.73,40.82-17.9,58.9-31.26,5.18-3.83,9.91-4.17,15.52-.09a273.26,273.26,0,0,0,24.15,15.24c5.16,3,4,4.62-.08,7.59-16.5,12.12-35.2,20.18-53.45,28.93C880,331.15,820.94,357.35,764,388c-19.64,10.57-39.11,21.47-57.18,34.65-1.62,1.19-3.21,2.41-4.73,3.72-4.9,4.2-5.77,10.24-2.88,14.91,3.44,5.58,8.29.75,11.52-1.54,58.11-41.1,124.59-58.31,193.6-68.62,36-5.38,72.4-6.18,108.63-8.89,22.73-1.7,45.37-4.64,68-7,2.77-.29,5.22-.53,7.26,2.36a266.34,266.34,0,0,1,29.62,54c-6.18,1.28-11.51-.86-17-1-15.23-.45-30.27-1.61-45.65,1.12-23.85,4.23-48,.69-72.06-.52-47.84-2.4-95.68-5.82-143.52-.54-26.76,2.95-53,8.36-77.12,21a105.9,105.9,0,0,0-35.43,29.68c-6.25,8.1-14,15-21.16,22.41-7.7,7.94-15.06,16.16-21.16,25.41-1.87,2.83-3.87,4-7.27,4-16-.15-32.11-.22-48.16,0-4.17.06-6.27-2-8.49-4.93-18.34-24-38.63-46.17-63.38-63.85-33.45-23.9-70.42-37.4-111.84-35.1-84.74,4.7-169.52,2.07-254.28,2.44-8.34,0-8.43-.19-5-7.75a281.54,281.54,0,0,1,24.22-43.24c2-3,3.9-4.24,7.91-3.68,67,9.34,134.27,16.73,201.58,23.65,26.4,2.71,52.81,5.79,78.74,11.8a48.06,48.06,0,0,1,11.31,3.9c25.8,13.35,52.3,25.46,76.16,42.28,2.13,1.5,3.62,2.44,5.59-.05,2.41-3.05,6.31-5.44,4.07-10.31-1.09-2.36-3.2-3.78-5-5.55-40.71-41.15-93.15-61.34-145.57-81.53-48.13-18.53-97.77-32.88-145.52-52.48C295.75,287,291.62,285.27,286.52,283.13Z" transform="translate(-13.03 -1.47)"/><path class="cls-4" d="M1031.85,934.44c13.94-2.41,21.08,2.41,24.06,16.66a76.48,76.48,0,0,1-3.52,44.09c-5.12,13.29-13.18,23.06-28.58,23.58-14.34.48-26.71-8.29-32.48-23.22-6.84-17.74-5.5-35.24,3.46-51.95,1.9-3.54,1.9-5.62-.56-9-10.49-14.47-10.29-27.05-.09-42.06a31.32,31.32,0,0,0,1.63-3c-.58-.61-.87-1.21-1.2-1.23-14-.89-13.68-.88-13.89,13.22-.61,39.91,1.63,79.76,2,119.65,0,5.76,1.06,11.52.92,17.26-.11,4.81,1.66,5.78,6.16,5.65,35.82-1,71.66-1.81,107.49-2.64,3.23-.08,6.48,0,10.73,0-4.29,11.74-11.21,21.11-17.62,30.75-1.18,1.78-3.17,1.17-4.84,1-26.42-1.91-52.86-3.71-79.26-5.88-9.29-.77-16.94,2.36-21.53,10.35a42.23,42.23,0,0,0-5.18,27.49c1.5,10.56,9,15.33,23.55,16,13.82.69,27.52-1,41.18-2.37,15.91-1.64,26.29,3.22,32.37,17.91,7,16.79,8.22,34.32,4.49,52.15a20.07,20.07,0,0,1-1.76,4.9c-2,3.94-4.78,7.87-9.58,7-5.5-1-2.78-6.1-3.13-9.43-.62-5.89,1-11.61.36-17.79-2.24-20.32-15.37-22.73-30.27-20.15-8.88,1.54-17.78,3.33-26.77,2.2-14.32-1.81-25-9.23-31.6-22.23-.88-1.73-1.42-3.78-4.28-5.19-1.49,5.74-3,11.3-4.37,16.88-10.38,41.13-27.57,79.36-49.66,115.41-2.92,4.75-2.32,6.5,2.09,9.13,7.72,4.61,15.14,9.73,22.53,14.87,4.11,2.86,5.68,1.74,5.76-2.9,0-2,.23-4,.11-6-1.23-21.12,2.62-41.86,4.57-62.74.28-3,2.16-4.41,4-6,8.26-7.27,16.59-14.46,25.37-22.08,5.79,9.86,13.11,18.43,20.88,26.75,14.61,15.66,33,21.47,53.55,22.67,2.06.12,4.82-1.26,6.06,1.26,1,2.12-1.51,3.4-2.29,5.13-6.7,14.71-17.86,16.61-32.65,13.72-18.13-3.55-35.4-8-49.61-22.21-3.55,14.4-3.45,28-2,41.51a115.93,115.93,0,0,0,8.06,33.2c1.45,3.42.55,5.66-3.07,6.92-3,1.07-6.33,2-8.9,3.78-14.81,10.52-27.27,7.27-39.71-4.82-8-7.77-17.79-13.69-26.63-20.63-4.08-3.21-6.91-4.43-10.32,1.28-3,5.08-7.5,9.35-11.56,13.76-3.29,3.57-3.61,6,.53,9.63,29.16,25.62,58.07,51.53,87,77.38.27.24.16.9.35,2.15-11.8.93-23.07,4.08-35.31,3-17-1.53-33.74,1.77-49.88,7.57-11.26,4-22.52,8.39-32.57,14.71-9.35,5.88-18.45,6.27-28.43,3.59-6.18-1.66-12.38-3.24-19.52-5.1,21.19-29,40.63-58.59,59-88.9-3.34-2-4.27.6-5.47,1.79a311.75,311.75,0,0,1-85.11,59c-4.84,2.31-5.11,4.15-3.09,8.59,15,33.07,29.82,66.25,44.69,99.39.38.86.82,1.7,1.56,3.2-11.7,2.18-22.64-1.23-33.67-1.27-2.91,0-3.43-3.33-4.24-5.6-10.12-28.28-20.41-56.51-30-85-2.15-6.37-4.69-7.29-10.44-5.14a127.17,127.17,0,0,1-19.28,5.58c-5.36,1.09-6.21,3.51-5.07,8.45,8.9,38.71,17.56,77.49,26.41,116.22,2.71,11.83,2.88,11.28-9.15,11.36a41,41,0,0,1-24.22-7.41c-14.72-9.73-31.72-13.22-49.27-12.37-6.49.31-10.17-2-13-7.31a129.3,129.3,0,0,0-8.08-13.44c-3.22-4.49-2.26-6.48,2.88-8.07,17.15-5.31,33.38-12.82,49.5-20.69,7.42-3.62,10.33-8,7.5-15.81a5.45,5.45,0,0,1-.5-2.19c1.83-17.35-10.76-24.55-22.76-31.85-6.48-3.95-13.09-2.3-18.7,3.41,5.57,3.24,11.19,6.42,16.7,9.76s8.43,8.46,8.06,15c-.36,6.32-3.89,10.66-9.63,13.08-13.5,5.7-26.67,6.07-38.85-3.28-3.12-2.39-5.33-2.66-8.95-.52-12.44,7.41-25.44,6.58-37.81,0-13.21-7-13.52-22.35-1.34-30.93,6.8-4.8,14.89-6.64,22.18-10-2.91-7.78-9.16-10.41-16.12-12.33-9.81-2.69-19.62-5.4-29.23-8.69-4.17-1.42-5.33-.66-6.81,3.44-12.79,35.51-25.89,70.91-38.92,106.33-.58,1.57-1.35,3.08-2.45,5.56-5.69-9-12.09-16.93-15-26.42-7.4-24.55-21.24-44.9-39-62.89-6.68-6.76-13-14-20.79-19.55a10.32,10.32,0,0,1-4.18-7.62c-1.23-10.1-2.69-20.18-4.22-31.43,34.45,9.59,68.68,17.25,103.1,24,.22-.64.44-1.28.67-1.92-7.25-3.94-14.56-7.8-21.75-11.85A316.68,316.68,0,0,1,447.18,1332c-3.55-3.47-5.39-3.47-8.81,0q-36.76,37.73-73.89,75.12c-6.19,6.28-6.26,6.25-9.11-2.46-1.31-4-2.06-8.26-3.83-12-5.05-10.87-.14-17.45,8.09-24.38,21.26-17.89,41.81-36.63,62.67-55,1.95-1.71,4.53-3.44,1.41-5.86-14-10.89-11.07-26-10.24-41.69,8.09,10,14.26,20.39,23.64,29.19.68-5.6-.82-11.17,4.52-15.21,5.63-4.26,11.69-3.64,17.86-3.77,29.82-.61,50.76,14.75,68,37.3,11.29,14.78,20.07,30.92,27.67,47.77,2.68,5.94.81,12.21,1.23,20.08A128.07,128.07,0,0,1,538,1354.44a124.48,124.48,0,0,0-35.7-41.87c-13.72-10.24-29.23-11.86-45.52-10.64-3.11.23-3.71,2.25-4.72,4.79-1.32,3.32-.87,5.28,1.59,7.86a282.73,282.73,0,0,0,59.53,47.56A300.42,300.42,0,0,0,598.39,1397c10.54,2.51,18.2,9,24.22,17.54,2.49,3.52,4.21,4.08,7.51.92,8.92-8.56,20.77-10.17,32.15-12.51,4.67-1,8.67,2,12.3,4.62,7.43,5.38,14.7,11,23.55,17.64-3.7-16.81-8-31.88-9.9-49,8.25,5.48,17.39,6.92,20.63,16.82,1.19,3.63,5.68,2.62,8.75,1.8,6.91-1.86,13.72-4.12,20.52-6.21.31-2.29-1.66-2.26-2.84-2.93-8.34-4.67-10.59-10.77-7.76-20,7.88-25.85,23.84-43.3,50-52.2a269.26,269.26,0,0,1,62.55-13.3c7.55-.7,13.32,3.33,21.81,5.6-11.09,4.62-21.1,6.58-31.12,8.15-23.83,3.75-46,11.13-63.85,28.2-8,7.65-11.55,17.88-14.76,28.13-1,3.15.41,5.64,3,7.86,2.73,2.36,5,2.22,8.14.8,27-12.2,51.91-27.61,74.11-47.25,66.58-58.92,104.84-133.63,122.12-220,1.27-6.33,1.92-12.79,3.21-19.12,1-5.1,2.52-10.13,4-15.13,1.4-4.74,4.26-8.76,8-13.44-8.74,0-16.42,0-24.1,0-2.7,0-6.11.48-7.45-2.17-1.06-2.11,1.92-3.81,3.11-5.59,3.08-4.62,6.16-8.83,13.37-6.28,4.73,1.67,6.21-2.27,6.12-6.76-.27-14.81-.13-29.62-.5-44.42-1.24-49.64-2.81-99.28-2.55-149,.25-47.92-2.2-95.82-1.68-143.75.09-8.29,1.07-15.7,6.3-22.33,3.88-4.93,6.1-11.07,11.89-17,0,10.13.47,18.57-.15,26.92-.49,6.55,1.9,7.71,7.94,7.65,35.12-.36,70.24-.27,105.36-.32H1101c-4.87,8.56-9.8,15.65-17.07,21.25-20.15,15.54-31.47,36.12-34.15,61.55-.55,5.23-1.49,10.41-1.28,15.68.13,3.28-1.3,5.71-3.26,8.09-6.19,7.53-12.31,15.11-19,23.28-11.6-15.48-20.19-32.53-29.94-49.74-5.13,10.24-5.7,20.87-6.38,31.34-.49,7.64-1.76,15.18-5.85,21.37-4.66,7-4.65,14.38-4.86,22.13-.13,5,1.49,6.46,6.41,6.21,35.33-1.79,70.69-1.22,106-1.6,2.75,0,5.51,0,9.7,0-5.39,8.83-10.26,17-15.32,25-1.23,2-3.67,1.26-5.59,1.44-18.27,1.73-36.59.66-54.89.91-11.35.16-20,12.4-16,23.05,1.93,5.08,6.24,6.36,11.07,4.77,4.65-1.54,6.82-.44,7.64,4.54s2.37,9.62,3.6,14.42c-2.8-.51-5.25-2.26-8.44,0-15.12,10.68-18.52,39.87-6,53.8,7,7.77,16.67,6.13,20.33-3.83-9.91.14-14.73-6.28-17.52-14.38C1015.25,955.53,1019.65,943.64,1031.85,934.44ZM472,1410.28l-.71-.89c-.13.16-.39.43-.35.48a6.64,6.64,0,0,0,.74.76c11.41,16.32,23.31,32.29,33.66,50.68,6.15-13.54,11.56-25.54,17.06-37.51,1.2-2.62,2.72-5.06-1.85-5.78Q496.29,1414.18,472,1410.28Zm557.74-631.35c4.25-19.28,12.59-35.88,23.71-50.71-23.88,0-47.28,0-70.68,0-2.48,0-3.61.77-3.59,3.43.08,13.35,0,26.7,0,41,6.82-9.73,13.28-18.2,18.87-27.2,3.72-6,6.11-5.5,9.51,0C1014.53,756.56,1020.89,768.08,1029.77,778.93ZM916.69,1381l-30.35-29.63c-1.31-1.28-2.29-1.45-3.41.45-8.63,14.65-17.36,29.24-27.27,45.88A577.34,577.34,0,0,1,916.69,1381ZM703,1499.07l-19.66,9.66,21.71,7.86C705.89,1510.41,704.62,1504.89,703,1499.07Z" transform="translate(-13.03 -1.47)"/><path class="cls-4" d="M276.27,925.48c-13.48,2.48-21.91-4.13-23.78-20.5-1.93-16.86.3-33.38,9.19-48.32,11.67-19.61,38.53-20.39,51.76-1.2,13.82,20,11.59,40.84,1,61.41-2.08,4-2.95,6.42.37,10.88,9.38,12.65,8.14,27.79-1.87,40.54a33.22,33.22,0,0,0-1.91,3c.79.48,1.16.87,1.58.93,13.15,2,13.71,2,14.21-11.15.71-18.55.42-37.13.69-55.69.38-26.55.74-53.1,1.43-79.64.13-5.23-.75-7.26-6.67-7.54-35.35-1.63-70.7-.94-106-1.31-4.15,0-5.85,1.62-8,4.84-6.66,10.14-12,21.44-22.76,28.32-1.67,1.07-3.33,2.16-5.09,3.08-2.71,1.41-5.42,2.77-8-.48-2.14-2.72-2.51-6.14-.68-8.35C182,832,189,817.56,198.08,804.52c2.32-3.33,2.43-5,.36-8.18-12.08-18.65-12.81-38.12-3.45-58.1,2.5-5.35,6.25-8.76,12.67-8.68s10.91,2.34,14.17,7.91c8.44,14.37,8,29.43,4,44.85-.5,1.89-1.17,3.74-1.7,5.42,12.54,3.44,19.37-3.56,25-13a111.34,111.34,0,0,0,15.78-47.64c1.23-14.67,9.08-24.29,17.53-34.23,5.24-6.16,9.43-13.29,16.93-19.68a121.48,121.48,0,0,0,4,70.59c1.59,4.48,3.56,8.8,7,12.21,2.32,2.31,4.86,3.29,8,1,3.27-2.43,1.55-4.63.17-7.08-9-16-11.87-33.63-13.48-51.49-.85-9.43,2.51-18.25,7.4-26.22,4.11-6.7,12.74-7.74,18.86-2.77,10.61,8.61,11.66,29.92,1.48,39-2.83,2.53-2.66,4.14-1.43,7.13a134,134,0,0,0,12.76,23.62c2.84,4.22,2.64,7.21.07,11.27-6.38,10.08-11.4,20.91-20.2,29.49-9.37,9.14-23.31,6.57-30.74-3.11a77.35,77.35,0,0,1-6.84-10.67c-1.94-3.64-3.32-7.59-5.34-12.32-6.2,12.48-12.09,24.45-21.66,36.23,37.4-.86,73.42,1.25,110.19,1.48-2.27,5.84-4.44,11.07-6.32,16.4-1.24,3.51-4,3.08-6.7,3.18-6.57.26-9.66,3.36-9.61,10.35.29,39.64-1.76,79.24-1.62,118.89.11,29.07-1.68,58.15-2.5,87.22-1.14,40.67,4.9,80.46,15,119.72,3,11.56,6.24,23,2.47,36,10.54-4.18,19.71-9.06,30.19-12-1.14,7.08-.75,14.17-8.39,18.52-5,2.84-7.05,7.57-3.68,13.44,4.29,7.47-1.61,14.36-1.76,21.65a70.46,70.46,0,0,1-1.6,11c-5.24-6.52-8-13.27-10.4-20-2.47-6.95-5.29-8.43-12.49-5.21-34.87,15.58-70,30.54-105.94,46.1-.41-11.62,2.33-22.07,4.45-32.59.66-3.28,3.46-3.21,5.68-4q34.53-12.69,69.1-25.3c16.65-6.08,20.64-12.45,18.57-29.82s-2.55-17.64-19.55-13.06c-34.83,9.37-69.68,18.65-105.56,28.24,2.72-6.82,5.34-12.6,7.3-18.61,1.13-3.48,4.07-3.1,6.36-4.17,27.77-12.93,48.24-32.08,54.18-63.6a25.33,25.33,0,0,0,0-4.53c-.47-.14-1-.47-1.2-.33-14.95,11.81-26.38,3.47-29.44-11.59-2.21-10.89-3.43-21.63-.86-32.61,2.3-9.82,9.38-16.63,19.43-18.31,8-1.34,18,4.21,23,12.64,18.09,30.79,14,60.33-4.94,89.05-.69,1-1.51,2-2.17,3.06a7.26,7.26,0,0,0-.43,2c13.25-2.69,26.28-5.31,39.29-8,3.08-.64,4.72-2.32,3.93-5.8-8.36-36.9-8.55-74.37-7.25-111.88.25-7.16-2.1-8.39-8.68-8.43-35.1-.21-70.19-.92-105.28-1.54-2.13,0-4.9.89-6.23-1.36-1.49-2.53,1.62-3.81,2.47-5.74,6.91-15.72,17.82-23.13,35.94-20.11,12.25,2,25,1.28,37.51,1.56,9.72.22,19.27-11.65,16.77-20.94-1.51-5.59-5.44-8.67-11.32-6.6-5.54,2-7.07-.76-8-5.28s-2.09-9.15-3.15-13.72c3.85,1.18,7.33,1.74,11-1.36,14.59-12.44,15.83-38.84,5.31-51.84-6.68-8.24-16.23-6.5-20,3.59,7.66-.06,12.79,3.78,15.38,10.7C292.87,900,293.21,913.76,276.27,925.48Zm-66.5-150.9c3.39-5.74,1.59-11.84,1.55-17.76a2.75,2.75,0,0,0-2.81-2.82c-1.64.09-1.56,1.76-1.91,2.8C204.51,763.14,208,768.69,209.77,774.58Z" transform="translate(-13.03 -1.47)"/><path class="cls-4" d="M1059,776.5a39.74,39.74,0,0,1,6.32-18.88c4.15-6.48,14.79-6.29,19.05.29,7.07,10.92,7.62,22.33,1.18,33.75-5.43,9.62-15.16,10-21.59,1C1061.58,789.34,1059.05,781.44,1059,776.5Z" transform="translate(-13.03 -1.47)"/><path class="cls-3" d="M1029.77,778.93c-8.88-10.85-15.24-22.37-22.15-33.5-3.4-5.46-5.79-5.95-9.51,0-5.59,9-12.05,17.47-18.87,27.2,0-14.35,0-27.7,0-41,0-2.66,1.11-3.44,3.59-3.43,23.4,0,46.8,0,70.68,0C1042.36,743.05,1034,759.65,1029.77,778.93Z" transform="translate(-13.03 -1.47)"/><path class="cls-3" d="M916.69,1381a577.34,577.34,0,0,0-61,16.7c9.91-16.64,18.64-31.23,27.27-45.88,1.12-1.9,2.1-1.73,3.41-.45Z" transform="translate(-13.03 -1.47)"/><path class="cls-3" d="M472,1410.28q24.27,3.87,48.55,7.74c4.57.72,3,3.16,1.85,5.78-5.5,12-10.91,24-17.06,37.51-10.35-18.39-22.25-34.36-33.66-50.68Z" transform="translate(-13.03 -1.47)"/><path class="cls-3" d="M1031.85,934.44c-12.2,9.2-16.6,21.09-11.54,35.72,2.79,8.1,7.61,14.52,17.52,14.38-3.66,10-13.38,11.6-20.33,3.83-12.48-13.93-9.08-43.12,6-53.8,3.19-2.25,5.64-.5,8.44,0Z" transform="translate(-13.03 -1.47)"/><path class="cls-3" d="M703,1499.07c1.67,5.82,2.94,11.34,2,17.52l-21.71-7.86Z" transform="translate(-13.03 -1.47)"/><path class="cls-3" d="M471.71,1410.63a6.64,6.64,0,0,1-.74-.76s.22-.32.35-.48l.71.89Z" transform="translate(-13.03 -1.47)"/><path class="cls-3" d="M276.27,925.48c16.94-11.72,16.6-25.45,11.53-39-2.59-6.92-7.72-10.76-15.38-10.7,3.78-10.09,13.33-11.83,20-3.59,10.52,13,9.28,39.4-5.31,51.84-3.63,3.1-7.11,2.54-11,1.36Z" transform="translate(-13.03 -1.47)"/><path class="cls-3" d="M209.77,774.58c-1.82-5.89-5.26-11.44-3.17-17.78.35-1,.27-2.71,1.91-2.8a2.75,2.75,0,0,1,2.81,2.82C211.36,762.74,213.16,768.84,209.77,774.58Z" transform="translate(-13.03 -1.47)"/></svg>