<svg id="Layer_1" data-name="Layer 1" xmlns="http://www.w3.org/2000/svg" viewBox="0 0 1214.16 1652.11"><defs><style>.cls-1{fill:#ef8333;}.cls-2{fill:#01aeee;}.cls-3{fill:#fdfefe;}</style></defs><path class="cls-1" d="M1254.82,38.09c0,340.46.85,680.93-.51,1021.38-.41,104.09-27.82,202.85-75.82,295.36-59.56,114.79-144.78,205.09-258.92,267-69.5,37.68-143.74,60.15-222.64,66.29C538,1700.45,397.2,1654.56,275.48,1552.5c-117-98.1-187.55-224.49-219.35-373.17a671.67,671.67,0,0,1-13.67-102.82c-.09-1.67.48-3.62-1.4-4.81q0-513.39-.14-1026.78c0-5.69,1.28-7,7-7Q651.36,38.17,1254.82,38.09ZM647.89,68.2q-283.3,0-566.6,0c-11.59,0-10.07-1.43-10.07,10q0,476.91-.15,953.82c0,47.72,4,94.89,13.94,141.53,28,132,88.65,246.33,188.49,337.91C390,1618.32,527.36,1668.88,685.88,1659.35a516.49,516.49,0,0,0,151.2-32.48c98.68-37,180.56-97.54,246.26-179.61C1175.64,1332,1224,1199.33,1225,1052.32c2.15-324.75.67-649.53.67-974.3,0-9.81,0-9.81-9.64-9.81Z" transform="translate(-40.92 -37.95)"/><path class="cls-2" d="M648.53,103.3q266.25,0,532.5-.18c7.55,0,9.54,1.65,9.53,9.42q-.33,468.2-.19,936.4c-9.77,209.58-93,379.66-270.56,497.4-71.61,47.47-151.71,72.77-237.69,78-138.85,8.51-261.3-33.53-366.79-123.2-108.57-92.29-172-211.1-198.53-350.34-7.5-39.34-10.63-79-10.61-119.12q.27-459.48-.1-919c0-8.16,2.36-9.64,10-9.63Q382.29,103.46,648.53,103.3Zm519.72,676.92q0-149.88.15-299.76c0-6.75-1.47-8.82-8.58-8.8q-142.24.38-284.47.08c-21.69-.05-43.47,1.85-65.05-2.2-2.9-.54-6,0-9,.34-21,2.32-37.19,13.53-51.75,27.73-17.53,17.09-30.79,37.45-43.66,58-2.9,4.64-6.16,6.29-11.6,6.25q-51.21-.36-102.41,0c-4.71,0-7.14-1.45-9.27-5.65-10-19.65-21.41-38.39-35.92-55.11-16.33-18.82-35.92-30.82-61.39-33.9-28.22-3.4-56.46-3.94-84.74-3.84-87.48.34-174.9,3.27-262.31,7-7.82.34-9.9,2.27-9.89,10.16q.36,275.46.06,550.94c-.08,48.55,4.67,96.45,16,143.57,32.84,136.32,101.7,250,215.84,333.08C476.85,1593,607.16,1622,748.72,1592.51c121.82-25.36,219.27-91.1,295.1-188.64,83.23-107,123-229.71,124.28-364.87C1168.9,952.75,1168.25,866.48,1168.25,780.22ZM648.82,125.55q-255.61,0-511.23-.16c-7.14,0-9.3,1.52-9.28,9q.42,148,0,295.93c0,7.12,1.48,9.34,9,9.32,94.56-.28,189.12-.11,283.68-.25,17.41,0,34.74-2.4,52.24-.84,42.79,3.82,77.43,21.67,101.53,57.91,7.12,10.72,13.39,22,20,33.07a19.54,19.54,0,0,0,13.74,9.69c22.53,4.45,45.19,4.24,67.93,2.18,8.28-.75,14.21-4.18,17.08-12.45,1.14-3.28,3.32-6.23,5.15-9.25,26.47-43.71,64.08-70.26,115.92-73.51,26.21-1.65,52.53-2,78.81-2.1q133.11-.69,266.22-.65c6.69,0,8.8-1.36,8.78-8.52q-.4-149.86-.2-299.72c0-10.73,1.47-9.68-9.69-9.68Q903.68,125.53,648.82,125.55Z" transform="translate(-40.92 -37.95)"/><path class="cls-2" d="M1142.52,829.29c0,77.9,3.65,156-.74,233.67-10.13,179.18-83.13,326.83-231.33,432.63-65.17,46.52-138.59,73.13-218.57,80.24-131.42,11.67-247.26-26.86-347.1-112C248.39,1381.61,191.06,1276,165.4,1152.55c-8.42-40.47-12-81.4-11.92-122.76q.32-218.92-.08-437.85c0-7.13,1.42-9.24,8.95-9.21q114.53.46,229.07,0c7.18,0,9.18,1.52,9.17,9-.25,150-1.15,300,.19,450,.76,86,29.84,162.07,91.46,223.54,42.46,42.36,93.94,66.08,154.62,66.65,52.33.49,98.62-17.22,139-50.07,54.3-44.2,85.87-102.34,101.69-169.71a349.61,349.61,0,0,0,8.92-80.43q-.11-220.05-.16-440.12c0-6.58,1.19-8.89,8.47-8.86q114.91.48,229.84.09c6.55,0,8.37,1.37,8.35,8.19-.28,79.43-.18,158.85-.18,238.28ZM267.1,924.49l-.11-.13c1.07,4.61,2.23,9.21,3.18,13.84s2.47,7.29,8.06,5.32c5.93-2.09,9.88,1,11.4,6.65,2.53,9.37-7.09,21.33-16.9,21.11-12.62-.28-25.46.48-37.8-1.58-18.27-3-29.26,4.43-36.23,20.27-.85,1.95-4,3.24-2.48,5.8,1.33,2.26,4.12,1.33,6.27,1.37,35.37.61,70.74,1.34,106.12,1.54,6.63,0,9,1.29,8.75,8.51-1.31,37.8-1.12,75.57,7.31,112.76.79,3.51-.86,5.21-4,5.85-13.11,2.7-26.24,5.34-39.59,8a8,8,0,0,1,.42-2c.67-1.06,1.5-2,2.19-3.08,19-29,23.21-58.73,5-89.75-5-8.5-15.1-14.1-23.16-12.75-10.13,1.69-17.27,8.56-19.58,18.46-2.59,11.06-1.37,21.89.86,32.86,3.08,15.18,14.6,23.6,29.67,11.69.18-.15.74.19,1.22.33a24.85,24.85,0,0,1,0,4.57c-6,31.77-26.62,51.07-54.61,64.1-2.31,1.08-5.26.7-6.41,4.21-2,6-4.62,11.88-7.36,18.76,36.17-9.67,71.3-19,106.4-28.47,17.14-4.62,17.63-4.36,19.71,13.16s-1.94,23.94-18.72,30.06q-34.85,12.72-69.65,25.5c-2.23.82-5.06.75-5.72,4-2.14,10.61-4.9,21.14-4.49,32.85,36.21-15.68,71.64-30.76,106.78-46.46,7.27-3.25,10.1-1.76,12.59,5.25,2.41,6.76,5.2,13.56,10.49,20.14a71.9,71.9,0,0,0,1.61-11.06c.15-7.35,6.1-14.3,1.77-21.82-3.4-5.92-1.33-10.68,3.71-13.55,7.71-4.38,7.31-11.53,8.46-18.67-10.57,2.94-19.8,7.86-30.43,12.08,3.8-13,.51-24.6-2.49-36.25-10.18-39.57-16.27-79.68-15.12-120.67.83-29.3,2.63-58.61,2.52-87.91-.14-40,1.92-79.89,1.63-119.84,0-7,3.06-10.17,9.69-10.43,2.76-.11,5.5.34,6.76-3.2,1.89-5.38,4.08-10.65,6.36-16.54-37.06-.23-73.37-2.35-111.06-1.49,9.65-11.87,15.58-23.94,21.83-36.52,2,4.77,3.43,8.75,5.38,12.42a77.74,77.74,0,0,0,6.9,10.76c7.49,9.75,21.53,12.35,31,3.13,8.88-8.65,13.93-19.57,20.36-29.72,2.59-4.09,2.79-7.11-.06-11.36a135.92,135.92,0,0,1-12.87-23.81c-1.24-3-1.41-4.63,1.44-7.18,10.26-9.14,9.2-30.62-1.49-39.3-6.17-5-14.86-4-19,2.79-4.93,8-8.32,16.93-7.46,26.44,1.62,18,4.52,35.79,13.58,51.89,1.39,2.47,3.13,4.69-.17,7.13-3.13,2.33-5.69,1.35-8-1-3.46-3.43-5.44-7.79-7.05-12.3a122.48,122.48,0,0,1-4.05-71.16c-7.56,6.44-11.79,13.63-17.07,19.84-8.52,10-16.43,19.71-17.67,34.5a112.11,112.11,0,0,1-15.91,48c-5.69,9.52-12.57,16.57-25.21,13.11.53-1.7,1.21-3.56,1.71-5.47,4.05-15.54,4.51-30.72-4-45.21-3.29-5.61-8-7.88-14.28-8-6.48-.09-10.25,3.35-12.78,8.74-9.43,20.14-8.7,39.77,3.48,58.57,2.09,3.22,2,4.88-.36,8.24-9.19,13.14-16.21,27.71-26.57,40.14-1.85,2.22-1.47,5.67.69,8.41,2.58,3.28,5.31,1.91,8,.48,1.77-.92,3.45-2,5.13-3.11,10.83-6.93,16.22-18.31,22.94-28.53,2.14-3.25,3.85-4.93,8-4.88,35.63.37,71.27-.32,106.89,1.32,6,.28,6.86,2.32,6.73,7.6-.69,26.75-1.06,53.51-1.44,80.27-.27,18.71,0,37.44-.69,56.13-.51,13.31-1.07,13.29-14.33,11.24-.42-.06-.8-.45-1.59-.93a33.81,33.81,0,0,1,1.92-3.07c10.1-12.86,11.34-28.11,1.88-40.86-3.33-4.5-2.46-6.89-.36-11,10.69-20.73,12.94-41.7-1-61.9-13.34-19.34-40.41-18.55-52.17,1.21-9,15.06-11.22,31.71-9.27,48.71C245,920.33,253.52,927,267.1,924.49Zm761.59,9,.13.14c-1.24-4.84-2.82-9.62-3.63-14.53s-3-6.13-7.7-4.58c-4.86,1.6-9.21.31-11.15-4.81-4.09-10.74,4.66-23.07,16.09-23.23,18.45-.25,36.91.83,55.33-.92,1.94-.18,4.39.53,5.64-1.45,5.09-8.08,10-16.28,15.43-25.17-4.22,0-7,0-9.77,0-35.63.38-71.28-.19-106.88,1.61-5,.25-6.6-1.18-6.46-6.25.2-7.82.19-15.21,4.89-22.31,4.13-6.24,5.4-13.84,5.9-21.54.69-10.55,1.26-21.26,6.43-31.59,9.83,17.35,18.49,34.53,30.18,50.14,6.69-8.24,12.86-15.88,19.1-23.47,2-2.4,3.41-4.85,3.28-8.16-.21-5.3.74-10.53,1.3-15.8,2.7-25.63,14.11-46.38,34.41-62,7.33-5.66,12.31-12.8,17.21-21.42h-8.76c-35.4.06-70.8,0-106.19.32-6.1.06-8.5-1.11-8-7.71.63-8.42.15-16.91.15-27.13-5.83,6-8.07,12.21-12,17.18-5.26,6.68-6.25,14.14-6.34,22.5-.52,48.32,1.94,96.59,1.69,144.9-.27,50.07,1.33,100.1,2.57,150.14.38,14.92.24,29.85.51,44.77.08,4.53-1.41,8.5-6.17,6.82-7.27-2.57-10.37,1.67-13.48,6.33-1.19,1.8-4.2,3.51-3.13,5.64,1.35,2.67,4.79,2.16,7.51,2.18,7.74.06,15.48,0,24.29,0-3.78,4.72-6.66,8.77-8.08,13.55-1.5,5-3,10.11-4,15.25-1.3,6.38-2,12.89-3.23,19.27-17.42,87-56,162.32-123.1,221.71-22.37,19.8-47.5,35.33-74.69,47.62-3.17,1.44-5.46,1.58-8.21-.81-2.58-2.23-4-4.73-3-7.91,3.25-10.33,6.83-20.65,14.89-28.35,18-17.21,40.34-24.65,64.35-28.43,10.1-1.59,20.19-3.56,31.37-8.21-8.56-2.29-14.38-6.35-22-5.65a270.87,270.87,0,0,0-63.05,13.41c-26.33,9-42.42,26.56-50.36,52.61-2.85,9.34-.59,15.48,7.82,20.19,1.19.67,3.18.64,2.86,3-6.85,2.1-13.71,4.38-20.67,6.26-3.1.83-7.63,1.85-8.83-1.82-3.27-10-12.48-11.42-20.79-16.94,1.88,17.24,6.25,32.43,10,49.38-8.91-6.71-16.24-12.36-23.73-17.79-3.66-2.65-7.69-5.62-12.39-4.65-11.48,2.35-23.42,4-32.41,12.6-3.33,3.19-5.07,2.62-7.57-.92-6.08-8.62-13.79-15.15-24.41-17.68a302.68,302.68,0,0,1-85.86-35.13,284.89,284.89,0,0,1-60-47.94c-2.48-2.6-2.93-4.57-1.6-7.92,1-2.56,1.62-4.59,4.76-4.83,16.42-1.22,32.05.4,45.88,10.72a125.49,125.49,0,0,1,36,42.21,129.09,129.09,0,0,0,18.5,26.89c-.42-7.93,1.46-14.25-1.24-20.24-7.66-17-16.51-33.25-27.89-48.14-17.37-22.73-38.48-38.22-68.53-37.6-6.22.13-12.32-.49-18,3.8-5.39,4.07-3.87,9.68-4.56,15.33-9.46-8.87-15.68-19.39-23.83-29.42-.84,15.85-3.83,31,10.32,42,3.15,2.44.55,4.19-1.42,5.92-21,18.5-41.74,37.39-63.16,55.42-8.3,7-13.25,13.62-8.16,24.57,1.78,3.82,2.54,8.11,3.86,12.15,2.88,8.78,2.94,8.81,9.18,2.48q37.31-37.8,74.48-75.72c3.45-3.54,5.31-3.53,8.88,0a319.22,319.22,0,0,0,66.95,50.11c7.25,4.08,14.61,8,21.92,11.94-.22.65-.45,1.29-.67,1.94-34.7-6.82-69.2-14.53-103.93-24.21,1.55,11.35,3,21.5,4.26,31.68a10.45,10.45,0,0,0,4.21,7.69c7.87,5.63,14.23,12.88,21,19.71,17.88,18.12,31.83,38.64,39.29,63.38,2.89,9.57,9.34,17.54,15.08,26.63,1.11-2.5,1.88-4,2.47-5.6,13.13-35.71,26.34-71.39,39.23-107.18,1.49-4.13,2.66-4.9,6.86-3.46,9.68,3.31,19.58,6,29.46,8.76,7,1.93,13.32,4.58,16.25,12.42-7.35,3.43-15.5,5.29-22.35,10.12-12.28,8.65-12,24.1,1.35,31.18,12.47,6.61,25.57,7.44,38.11,0,3.64-2.16,5.87-1.89,9,.53,12.27,9.41,25.55,9,39.16,3.3,5.78-2.44,9.34-6.81,9.71-13.18.37-6.57-2.51-11.69-8.13-15.1s-11.22-6.57-16.83-9.84c5.65-5.75,12.31-7.42,18.85-3.44,12.09,7.36,24.79,14.62,22.94,32.11a5.33,5.33,0,0,0,.5,2.2c2.86,7.88-.08,12.28-7.56,15.93-16.25,7.94-32.61,15.51-49.89,20.86-5.19,1.61-6.15,3.61-2.91,8.13a129.85,129.85,0,0,1,8.15,13.56c2.88,5.3,6.59,7.67,13.14,7.36,17.68-.85,34.82,2.66,49.65,12.47,7.78,5.15,15.26,7.53,24.42,7.47,12.12-.08,12,.47,9.22-11.45-8.93-39-17.65-78.12-26.63-117.15-1.14-5-.29-7.42,5.12-8.51a128.8,128.8,0,0,0,19.43-5.62c5.8-2.17,8.35-1.24,10.52,5.17,9.71,28.67,20.09,57.12,30.28,85.63.82,2.28,1.34,5.64,4.28,5.64,11.11,0,22.15,3.48,33.94,1.28-.75-1.51-1.19-2.35-1.58-3.22-15-33.41-29.9-66.85-45-100.19-2-4.47-1.77-6.33,3.12-8.65a314.2,314.2,0,0,0,85.78-59.49c1.21-1.2,2.15-3.82,5.52-1.81-18.56,30.56-38.14,60.36-59.5,89.61,7.19,1.88,13.44,3.47,19.67,5.14,10.05,2.7,19.23,2.31,28.65-3.61,10.14-6.37,21.49-10.76,32.83-14.83,16.28-5.85,33.17-9.18,50.28-7.63,12.34,1.11,23.7-2.07,35.59-3-.19-1.27-.08-1.93-.35-2.17-29.2-26-58.34-52.17-87.74-78-4.17-3.66-3.84-6.11-.53-9.7,4.1-4.45,8.61-8.75,11.66-13.88,3.43-5.75,6.28-4.53,10.4-1.29,8.91,7,18.77,13,26.84,20.8,12.54,12.18,25.1,15.46,40,4.86,2.58-1.84,5.9-2.74,9-3.81,3.65-1.27,4.56-3.53,3.1-7a117,117,0,0,1-8.13-33.46c-1.42-13.61-1.52-27.33,2.06-41.84,14.33,14.36,31.73,18.81,50,22.38,14.9,2.91,26.16,1,32.9-13.83.79-1.74,3.36-3,2.31-5.17-1.24-2.54-4-1.15-6.11-1.27-20.71-1.21-39.24-7.06-54-22.84-7.83-8.4-15.21-17-21.05-27-8.84,7.68-17.25,14.92-25.57,22.25-1.84,1.62-3.74,3.07-4,6.06-2,21-5.85,41.95-4.61,63.24.12,2-.08,4-.11,6.07-.08,4.68-1.66,5.81-5.81,2.92-7.44-5.18-14.92-10.34-22.7-15-4.45-2.66-5.05-4.41-2.11-9.21,22.26-36.34,39.6-74.87,50.06-116.32,1.42-5.62,2.9-11.23,4.4-17,2.88,1.42,3.43,3.48,4.32,5.23,6.67,13.11,17.41,20.59,31.85,22.41,9.06,1.14,18-.67,27-2.22,15-2.6,28.25-.17,30.51,20.31.69,6.24-1,12-.36,17.93.35,3.36-2.39,8.54,3.16,9.51,4.84.85,7.63-3.1,9.65-7.08a19.83,19.83,0,0,0,1.77-4.94c3.76-18,2.49-35.63-4.52-52.56-6.13-14.81-16.6-19.71-32.64-18.06-13.76,1.42-27.57,3.09-41.49,2.4-14.64-.73-22.23-5.54-23.74-16.19a42.49,42.49,0,0,1,5.22-27.7c4.63-8.06,12.33-11.21,21.7-10.44,26.61,2.2,53.26,4,79.89,5.93,1.68.12,3.68.74,4.88-1.06,6.46-9.71,13.43-19.15,17.75-31-4.28,0-7.55-.07-10.81,0-36.12.84-72.23,1.63-108.34,2.66-4.54.13-6.33-.84-6.21-5.69.14-5.79-.89-11.6-.93-17.4-.33-40.21-2.58-80.38-2-120.6.22-14.21-.06-14.22,14-13.33.33,0,.62.63,1.2,1.25a31.62,31.62,0,0,1-1.64,3c-10.28,15.13-10.48,27.82.09,42.41,2.48,3.42,2.48,5.51.57,9.08-9,16.85-10.39,34.48-3.49,52.36,5.81,15.06,18.28,23.89,32.74,23.41,15.52-.52,23.64-10.37,28.81-23.76a77.2,77.2,0,0,0,3.55-44.45C1049.94,936,1042.74,931.09,1028.69,933.52Zm27.38-159.2c0,5,2.59,12.95,5,16.31,6.48,9,16.3,8.67,21.76-1,6.5-11.51,6-23-1.18-34-4.3-6.64-15-6.83-19.21-.3A40.13,40.13,0,0,0,1056.07,774.32Z" transform="translate(-40.92 -37.95)"/><path class="cls-1" d="M604.43,1223.21c-.23,15.52-.22,37-4.92,58.14-2.47,11.09-6,13.36-17.21,11.71-6-.87-12.15-1.18-17.64-4-10.18-5.3-18.37-10.68-19.38-24.86-3.75-52.69-13.92-104.61-21.18-156.89-6.22-44.79-13.2-89.52-12.82-134.95.18-20.42,6.55-39.8,9.89-59.69,6.21-36.93,11.93-73.87,10-111.51-1-20.36-6.37-38.92-19.29-55.52-10.32-13.26-16.06-29.19-18.22-46-1.8-14,6.24-21.66,20.31-19.83,12.46,1.62,22.7,8.06,32.49,15.36,5.27,3.93,18.63-.81,18.85-7.25.75-22,8.19-42.61,12-64,1-5.47,1.29-11.08,2.65-16.44,2.4-9.48,9.39-12.54,18-7.8,7.57,4.19,13.29,10.75,18.85,17.19,3.71,4.3,3.22,10,1.83,15.27a41.85,41.85,0,0,1-4.2,10.51c-5.23,8.9-8.81,17.34-4.22,28.24,3.62,8.61,0,17.46-5.12,25A18.48,18.48,0,0,0,602.16,711c2,9.12,6.74,11.55,14.67,6.83,5.9-3.51,11.22-7.82,12.69-15.21.73-3.69,3.62-5.36,6.77-6.52,3.54-1.31,7.15-2.47,10.78-3.52,8.53-2.48,14.64-6.32,15.48-16.72.89-11.14,7.12-19.26,18.52-22.41,5.71-1.58,9.32-5.73,12.78-10.2,3.7-4.79,7.35-9.71,11.66-13.93,7.07-6.91,13.17-5.29,16.53,4.16,3.64,10.21,2.75,20.41-1.14,30.38-8.72,22.4-25,39-42.63,54.33-14.12,12.28-28.88,23.82-46.79,30.32a4.72,4.72,0,0,0-3.2,3.76c-10.43,40.85-24.69,80.62-34.23,121.7-2.92,12.54-4.41,25.4-2.29,38.38a32.85,32.85,0,0,0,4.45,12.77c5.49,8.54,12.55,9.5,20,2.71,22.15-20.15,45.44-38.68,73.18-50.71,20.88-9,42.25-13.65,64.75-6a76.86,76.86,0,0,1,18.77,9.71c2.56,1.76,4.05,3.15,7.37-.06,7.41-7.17,22.78-7,31.73-.8s11.41,14.86,7.37,26.86c-3,8.95-8.2,16.76-13.12,24.7-2.9,4.7-4.06,9.07-2.23,14.91,3.77,12,.54,24.06-2.24,35.86-2.9,12.32-8.49,23.66-13.14,35.38-14,35.34-18.71,71.89-7.54,109,3.15,10.49,2.7,19.61-2.33,29-5.48,10.24-10.57,20.69-15.95,31a162.73,162.73,0,0,0-18,61.35c-.5,5.56-.09,11,3,16.09,3.4,5.68-.18,9.65-4.44,12.81-7.23,5.35-15.74,7.88-24.27,10.28-3.38,1-6.84,1.69-10.18,2.78-7.31,2.39-10.16.82-11.23-7.11-1.64-12.26,1.46-24.1,3.84-36,.94-4.69,1.81-9.53,3.68-13.89,7.42-17.28,3.38-34.86,1.47-52.25-2.28-20.82-5.26-41.6-11.66-61.68-.46-1.44-.92-2.88-1.46-4.3-9.35-24.81-17-29.25-44-18.59-17.79,7-28.23,21.58-35,38.88C604.1,1161.59,603.3,1189.32,604.43,1223.21Z" transform="translate(-40.92 -37.95)"/><path class="cls-2" d="M277.43,277c13.81-10.77,27.39-19.48,41.16-27.91,2.27-1.39,4.06-1.1,6.3-.11,66.67,29.67,133.46,59.12,196.16,96.82,19.72,11.86,39.08,24.29,55.84,40.29,4.39,4.19,8.72,8.5,11.88,13.73,2.29,3.79,5.38,5.23,9.55,4.13,4-1.05,5.49-4.17,6-7.93a24.83,24.83,0,0,0-2.77-14.68c-4.61-9.11-10.58-17-19-23.21Q488,287.71,393.7,216.91c-1-.73-1.81-1.65-3.56-3.27A393.26,393.26,0,0,1,435,197.19c3-.91,4.72,1.15,6.63,2.73,49.87,41.28,99.33,83,146.27,127.66,4.15,3.95,8.57,4.1,13.26,3.12,5.14-1.06,7.07-4.56,5.13-9.69a32.75,32.75,0,0,0-7-10.72c-32.7-34.87-62.39-72.4-94.59-107.72l-18.25-20c13.15-2.62,25.13-5,37.09-7.42,3.81-.77,4.59,2.55,6.11,4.6,19.37,26.23,38.14,52.93,59.59,77.56a231.66,231.66,0,0,0,24.06,24.17c2.11,1.81,4.43,4,7.39,2.45s2.3-4.8,2-7.5c-1.22-10.49-5.41-20-10.49-29-13-22.94-23.06-47.12-33.21-71.35-3.16-7.55-.5-8.47,5.64-8.6,3.54-.08,7.07-.35,10.6-.55,18.29-1.05,18.38-1.08,25,16.33,4.65,12.26,10,24.33,12.27,37.35,1.12,6.32,4.37,5.26,7.91,2.45s5.58-6.5,7.59-10.32c5.67-10.81,9.22-22.39,12.11-34.18,3-12.27,4.12-13.26,16.77-12.73,8.83.37,17.65,1.13,26.48,1.59,3.94.2,5,1.71,3,5.21q-6,10.11-11.89,20.24Q672.2,230.35,650,267.86c-.64,1.09-1.34,2.15-1.88,3.29-2.89,6.13-1.14,16,3.69,17.69,6.69,2.4,9.41-3.39,12.27-7.53,23.86-34.56,49.95-67.41,76.17-100.18,5.38-6.72,10.78-9.52,19.42-6.91,6.9,2.08,14.28,2.59,22.6,4a140.8,140.8,0,0,1-17,21.16c-25.12,26.71-50.29,53.4-72.28,82.84-9.65,12.91-19.84,25.67-23.09,42.15a33.31,33.31,0,0,0-.76,6.74c.06,4.76,2.86,5.61,6.62,3.84,4.16-2,7.49-5.13,10.68-8.4,39.08-40.09,81.83-76.07,125-111.52,8-6.56,16.64-12.34,23.86-19.83,1.63-1.69,3.35-3.08,6-2.29,15.16,4.57,30.26,9.31,45.59,15.73-9.58,10.83-20.25,19.21-31.56,26.85-33.72,22.78-67.36,45.69-98.74,71.69-20.48,17-40.38,34.54-56.61,55.8-7.4,9.69-13.84,19.94-16.65,32-.51,2.17-1.61,4.86.15,6.53,2.26,2.14,5,.1,6.91-1.07,8-4.78,16-9.64,23.68-15,43.74-30.5,87.32-61.24,134-87.19,13.46-7.47,27-14.84,40.85-21.57,20.17-9.81,41.14-18.05,59.36-31.51,5.22-3.86,10-4.2,15.66-.09a274.63,274.63,0,0,0,24.34,15.36c5.2,3,4,4.65-.09,7.65-16.63,12.21-35.47,20.34-53.87,29.16-58.73,28.14-118.3,54.55-175.69,85.45-19.8,10.66-39.42,21.64-57.64,34.93-1.63,1.2-3.23,2.43-4.76,3.75-4.94,4.24-5.81,10.32-2.91,15,3.47,5.62,8.36.75,11.62-1.55,58.57-41.43,125.58-58.78,195.14-69.17,36.32-5.42,73-6.23,109.49-9,22.91-1.72,45.73-4.68,68.59-7.09,2.8-.29,5.27-.53,7.32,2.38a268.59,268.59,0,0,1,29.86,54.46c-6.24,1.3-11.61-.86-17.11-1-15.35-.46-30.51-1.63-46,1.12-24,4.27-48.43.69-72.64-.52-48.22-2.42-96.43-5.87-144.66-.55-27,3-53.37,8.43-77.73,21.15a106.82,106.82,0,0,0-35.72,29.92c-6.29,8.16-14.11,15.15-21.32,22.59-7.76,8-15.18,16.29-21.32,25.6-1.89,2.86-3.91,4.07-7.34,4-16.18-.15-32.36-.23-48.54,0-4.21.06-6.32-2-8.55-5-18.5-24.23-38.94-46.54-63.89-64.36-33.72-24.08-71-37.7-112.73-35.38-85.41,4.74-170.87,2.09-256.3,2.46-8.41,0-8.5-.19-5.06-7.81a283.81,283.81,0,0,1,24.41-43.58c2.06-3,3.93-4.28,8-3.71,67.55,9.41,135.33,16.86,203.18,23.83,26.6,2.74,53.23,5.84,79.36,11.9a48.66,48.66,0,0,1,11.4,3.93c26,13.46,52.71,25.66,76.76,42.62,2.15,1.51,3.66,2.45,5.64-.05,2.43-3.08,6.36-5.48,4.11-10.39-1.1-2.38-3.23-3.81-5-5.6-41-41.48-93.89-61.83-146.74-82.18-48.51-18.68-98.54-33.14-146.67-52.89C286.74,281,282.57,279.19,277.43,277Z" transform="translate(-40.92 -37.95)"/><path class="cls-3" d="M1028.69,933.52c14-2.43,21.25,2.43,24.26,16.79a77.2,77.2,0,0,1-3.55,44.45c-5.17,13.39-13.29,23.24-28.81,23.76-14.46.48-26.93-8.35-32.74-23.41-6.9-17.88-5.54-35.51,3.49-52.36,1.91-3.57,1.91-5.66-.57-9.08-10.57-14.59-10.37-27.28-.09-42.41a31.62,31.62,0,0,0,1.64-3c-.58-.62-.87-1.23-1.2-1.25-14.07-.89-13.79-.88-14,13.33-.61,40.22,1.64,80.39,2,120.6,0,5.8,1.07,11.61.93,17.4-.12,4.85,1.67,5.82,6.21,5.69,36.11-1,72.22-1.82,108.34-2.66,3.26-.08,6.53,0,10.81,0-4.32,11.84-11.29,21.28-17.75,31-1.2,1.8-3.2,1.18-4.88,1.06-26.63-1.92-53.28-3.73-79.89-5.93-9.37-.77-17.07,2.38-21.7,10.44a42.49,42.49,0,0,0-5.22,27.7c1.51,10.65,9.1,15.46,23.74,16.19,13.92.69,27.73-1,41.49-2.4,16-1.65,26.51,3.25,32.64,18.06,7,16.93,8.28,34.59,4.52,52.56a19.83,19.83,0,0,1-1.77,4.94c-2,4-4.81,7.93-9.65,7.08-5.55-1-2.81-6.15-3.16-9.51-.63-5.93,1-11.69.36-17.93-2.26-20.48-15.5-22.91-30.51-20.31-8.95,1.55-17.92,3.36-27,2.22-14.44-1.82-25.18-9.3-31.85-22.41-.89-1.75-1.44-3.81-4.32-5.23-1.5,5.79-3,11.4-4.4,17-10.46,41.45-27.8,80-50.06,116.32-2.94,4.8-2.34,6.55,2.11,9.21,7.78,4.64,15.26,9.8,22.7,15,4.15,2.89,5.73,1.76,5.81-2.92,0-2,.23-4.06.11-6.07-1.24-21.29,2.65-42.19,4.61-63.24.28-3,2.18-4.44,4-6.06,8.32-7.33,16.73-14.57,25.57-22.25,5.84,9.94,13.22,18.57,21.05,27,14.73,15.78,33.26,21.63,54,22.84,2.08.12,4.87-1.27,6.11,1.27,1,2.14-1.52,3.43-2.31,5.17-6.74,14.84-18,16.74-32.9,13.83-18.28-3.57-35.68-8-50-22.38-3.58,14.51-3.48,28.23-2.06,41.84a117,117,0,0,0,8.13,33.46c1.46,3.45.55,5.71-3.1,7-3.06,1.07-6.38,2-9,3.81-14.93,10.6-27.49,7.32-40-4.86C922.73,1307,912.87,1301,904,1294c-4.12-3.24-7-4.46-10.4,1.29-3,5.13-7.56,9.43-11.66,13.88-3.31,3.59-3.64,6,.53,9.7,29.4,25.83,58.54,52,87.74,78,.27.24.16.9.35,2.17-11.89.93-23.25,4.11-35.59,3-17.11-1.55-34,1.78-50.28,7.63-11.34,4.07-22.69,8.46-32.83,14.83-9.42,5.92-18.6,6.31-28.65,3.61-6.23-1.67-12.48-3.26-19.67-5.14,21.36-29.25,40.94-59,59.5-89.61-3.37-2-4.31.61-5.52,1.81a314.2,314.2,0,0,1-85.78,59.49c-4.89,2.32-5.16,4.18-3.12,8.65,15.14,33.34,30,66.78,45,100.19.39.87.83,1.71,1.58,3.22-11.79,2.2-22.83-1.24-33.94-1.28-2.94,0-3.46-3.36-4.28-5.64-10.19-28.51-20.57-57-30.28-85.63-2.17-6.41-4.72-7.34-10.52-5.17a128.8,128.8,0,0,1-19.43,5.62c-5.41,1.09-6.26,3.53-5.12,8.51,9,39,17.7,78.11,26.63,117.15,2.73,11.92,2.9,11.37-9.22,11.45-9.16.06-16.64-2.32-24.42-7.47-14.83-9.81-32-13.32-49.65-12.47-6.55.31-10.26-2.06-13.14-7.36a129.85,129.85,0,0,0-8.15-13.56c-3.24-4.52-2.28-6.52,2.91-8.13,17.28-5.35,33.64-12.92,49.89-20.86,7.48-3.65,10.42-8,7.56-15.93a5.33,5.33,0,0,1-.5-2.2c1.85-17.49-10.85-24.75-22.94-32.11-6.54-4-13.2-2.31-18.85,3.44,5.61,3.27,11.27,6.47,16.83,9.84s8.5,8.53,8.13,15.1c-.37,6.37-3.93,10.74-9.71,13.18-13.61,5.74-26.89,6.11-39.16-3.3-3.15-2.42-5.38-2.69-9-.53-12.54,7.46-25.64,6.63-38.11,0-13.32-7.08-13.63-22.53-1.35-31.18,6.85-4.83,15-6.69,22.35-10.12-2.93-7.84-9.23-10.49-16.25-12.42-9.88-2.72-19.78-5.45-29.46-8.76-4.2-1.44-5.37-.67-6.86,3.46-12.89,35.79-26.1,71.47-39.23,107.18-.59,1.58-1.36,3.1-2.47,5.6-5.74-9.09-12.19-17.06-15.08-26.63-7.46-24.74-21.41-45.26-39.29-63.38-6.73-6.83-13.09-14.08-21-19.71a10.45,10.45,0,0,1-4.21-7.69c-1.24-10.18-2.71-20.33-4.26-31.68,34.73,9.68,69.23,17.39,103.93,24.21.22-.65.45-1.29.67-1.94-7.31-4-14.67-7.86-21.92-11.94a319.22,319.22,0,0,1-66.95-50.11c-3.57-3.49-5.43-3.5-8.88,0q-37.07,38-74.48,75.72c-6.24,6.33-6.3,6.3-9.18-2.48-1.32-4-2.08-8.33-3.86-12.15-5.09-11-.14-17.58,8.16-24.57,21.42-18,42.13-36.92,63.16-55.42,2-1.73,4.57-3.48,1.42-5.92-14.15-11-11.16-26.16-10.32-42,8.15,10,14.37,20.55,23.83,29.42.69-5.65-.83-11.26,4.56-15.33,5.68-4.29,11.78-3.67,18-3.8,30.05-.62,51.16,14.87,68.53,37.6,11.38,14.89,20.23,31.16,27.89,48.14,2.7,6,.82,12.31,1.24,20.24a129.09,129.09,0,0,1-18.5-26.89,125.49,125.49,0,0,0-36-42.21c-13.83-10.32-29.46-11.94-45.88-10.72-3.14.24-3.74,2.27-4.76,4.83-1.33,3.35-.88,5.32,1.6,7.92a284.89,284.89,0,0,0,60,47.94,302.68,302.68,0,0,0,85.86,35.13c10.62,2.53,18.33,9.06,24.41,17.68,2.5,3.54,4.24,4.11,7.57.92,9-8.62,20.93-10.25,32.41-12.6,4.7-1,8.73,2,12.39,4.65,7.49,5.43,14.82,11.08,23.73,17.79-3.72-17-8.09-32.14-10-49.38,8.31,5.52,17.52,7,20.79,16.94,1.2,3.67,5.73,2.65,8.83,1.82,7-1.88,13.82-4.16,20.67-6.26.32-2.31-1.67-2.28-2.86-3-8.41-4.71-10.67-10.85-7.82-20.19,7.94-26.05,24-43.65,50.36-52.61a270.87,270.87,0,0,1,63.05-13.41c7.6-.7,13.42,3.36,22,5.65-11.18,4.65-21.27,6.62-31.37,8.21-24,3.78-46.37,11.22-64.35,28.43-8.06,7.7-11.64,18-14.89,28.35-1,3.18.42,5.68,3,7.91,2.75,2.39,5,2.25,8.21.81,27.19-12.29,52.32-27.82,74.69-47.62,67.12-59.39,105.68-134.69,123.1-221.71,1.28-6.38,1.93-12.89,3.23-19.27,1-5.14,2.54-10.21,4-15.25,1.42-4.78,4.3-8.83,8.08-13.55-8.81,0-16.55,0-24.29,0-2.72,0-6.16.49-7.51-2.18-1.07-2.13,1.94-3.84,3.13-5.64,3.11-4.66,6.21-8.9,13.48-6.33,4.76,1.68,6.25-2.29,6.17-6.82-.27-14.92-.13-29.85-.51-44.77-1.24-50-2.84-100.07-2.57-150.14.25-48.31-2.21-96.58-1.69-144.9.09-8.36,1.08-15.82,6.34-22.5,3.92-5,6.16-11.16,12-17.18,0,10.22.48,18.71-.15,27.13-.49,6.6,1.91,7.77,8,7.71,35.39-.35,70.79-.26,106.19-.32h8.76c-4.9,8.62-9.88,15.76-17.21,21.42-20.3,15.65-31.71,36.4-34.41,62-.56,5.27-1.51,10.5-1.3,15.8.13,3.31-1.31,5.76-3.28,8.16-6.24,7.59-12.41,15.23-19.1,23.47-11.69-15.61-20.35-32.79-30.18-50.14-5.17,10.33-5.74,21-6.43,31.59-.5,7.7-1.77,15.3-5.9,21.54-4.7,7.1-4.69,14.49-4.89,22.31-.14,5.07,1.5,6.5,6.46,6.25,35.6-1.8,71.25-1.23,106.88-1.61,2.77,0,5.55,0,9.77,0-5.43,8.89-10.34,17.09-15.43,25.17-1.25,2-3.7,1.27-5.64,1.45-18.42,1.75-36.88.67-55.33.92-11.43.16-20.18,12.49-16.09,23.23,1.94,5.12,6.29,6.41,11.15,4.81,4.69-1.55,6.88-.44,7.7,4.58s2.39,9.69,3.63,14.53c-2.82-.51-5.29-2.27-8.5,0-15.24,10.76-18.67,40.19-6.1,54.23,7,7.83,16.8,6.18,20.5-3.87-10,.15-14.84-6.33-17.67-14.49C1012,954.78,1016.4,942.8,1028.69,933.52ZM464.42,1413.14l-.72-.9c-.13.17-.39.44-.35.49a6.06,6.06,0,0,0,.75.77C475.6,1430,487.59,1446,498,1464.58c6.19-13.64,11.64-25.75,17.19-37.81,1.21-2.64,2.74-5.09-1.87-5.82Q488.89,1417.08,464.42,1413.14ZM1026.6,776.78c4.28-19.44,12.69-36.18,23.9-51.12-24.08,0-47.66,0-71.25,0-2.5,0-3.64.78-3.62,3.46.08,13.45,0,26.91,0,41.37,6.87-9.81,13.37-18.34,19-27.41,3.76-6,6.16-5.55,9.58,0C1011.23,754.23,1017.64,765.83,1026.6,776.78Zm-114,606.87L882,1353.79c-1.32-1.29-2.32-1.46-3.45.45-8.69,14.76-17.49,29.47-27.48,46.25A579.45,579.45,0,0,1,912.62,1383.65Zm-215.44,119-19.82,9.74,21.88,7.92C700.14,1514.07,698.85,1508.51,697.18,1502.64Z" transform="translate(-40.92 -37.95)"/><path class="cls-3" d="M267.1,924.49c-13.58,2.5-22.08-4.16-24-20.66-1.95-17,.31-33.65,9.27-48.71,11.76-19.76,38.83-20.55,52.17-1.21,13.93,20.2,11.68,41.17,1,61.9-2.1,4.08-3,6.47.36,11,9.46,12.75,8.22,28-1.88,40.86a33.81,33.81,0,0,0-1.92,3.07c.79.48,1.17.87,1.59.93,13.26,2.05,13.82,2.07,14.33-11.24.71-18.69.42-37.42.69-56.13.38-26.76.75-53.52,1.44-80.27.13-5.28-.75-7.32-6.73-7.6-35.62-1.64-71.26-.95-106.89-1.32-4.18-.05-5.89,1.63-8,4.88-6.72,10.22-12.11,21.6-22.94,28.53-1.68,1.08-3.36,2.19-5.13,3.11-2.73,1.43-5.46,2.8-8-.48-2.16-2.74-2.54-6.19-.69-8.41,10.36-12.43,17.38-27,26.57-40.14,2.34-3.36,2.45-5,.36-8.24-12.18-18.8-12.91-38.43-3.48-58.57,2.53-5.39,6.3-8.83,12.78-8.74,6.32.08,11,2.35,14.28,8,8.5,14.49,8,29.67,4,45.21-.5,1.91-1.18,3.77-1.71,5.47,12.64,3.46,19.52-3.59,25.21-13.11a112.11,112.11,0,0,0,15.91-48c1.24-14.79,9.15-24.48,17.67-34.5,5.28-6.21,9.51-13.4,17.07-19.84a122.48,122.48,0,0,0,4.05,71.16c1.61,4.51,3.59,8.87,7.05,12.3,2.34,2.33,4.9,3.31,8,1,3.3-2.44,1.56-4.66.17-7.13-9.06-16.1-12-33.9-13.58-51.89-.86-9.51,2.53-18.4,7.46-26.44,4.15-6.75,12.84-7.79,19-2.79,10.69,8.68,11.75,30.16,1.49,39.3-2.85,2.55-2.68,4.17-1.44,7.18a135.92,135.92,0,0,0,12.87,23.81c2.85,4.25,2.65,7.27.06,11.36-6.43,10.15-11.48,21.07-20.36,29.72-9.45,9.22-23.49,6.62-31-3.13a77.74,77.74,0,0,1-6.9-10.76c-1.95-3.67-3.34-7.65-5.38-12.42C265.67,764,259.74,776.09,250.09,788c37.69-.86,74,1.26,111.06,1.49-2.28,5.89-4.47,11.16-6.36,16.54-1.26,3.54-4,3.09-6.76,3.2-6.63.26-9.74,3.38-9.69,10.43.29,40-1.77,79.87-1.63,119.84.11,29.3-1.69,58.61-2.52,87.91-1.15,41,4.94,81.1,15.12,120.67,3,11.65,6.29,23.22,2.49,36.25,10.63-4.22,19.86-9.14,30.43-12.08-1.15,7.14-.75,14.29-8.46,18.67-5,2.87-7.11,7.63-3.71,13.55,4.33,7.52-1.62,14.47-1.77,21.82a71.9,71.9,0,0,1-1.61,11.06c-5.29-6.58-8.08-13.38-10.49-20.14-2.49-7-5.32-8.5-12.59-5.25-35.14,15.7-70.57,30.78-106.78,46.46-.41-11.71,2.35-22.24,4.49-32.85.66-3.3,3.49-3.23,5.72-4q34.82-12.78,69.65-25.5c16.78-6.12,20.8-12.54,18.72-30.06s-2.57-17.78-19.71-13.16c-35.1,9.44-70.23,18.8-106.4,28.47,2.74-6.88,5.39-12.71,7.36-18.76,1.15-3.51,4.1-3.13,6.41-4.21,28-13,48.63-32.33,54.61-64.1a24.85,24.85,0,0,0,0-4.57c-.48-.14-1-.48-1.22-.33-15.07,11.91-26.59,3.49-29.67-11.69-2.23-11-3.45-21.8-.86-32.86,2.31-9.9,9.45-16.77,19.58-18.46,8.06-1.35,18.16,4.25,23.16,12.75,18.23,31,14.07,60.8-5,89.75-.69,1.06-1.52,2-2.19,3.08a8,8,0,0,0-.42,2c13.35-2.71,26.48-5.35,39.59-8,3.11-.64,4.76-2.34,4-5.85-8.43-37.19-8.62-75-7.31-112.76.25-7.22-2.12-8.47-8.75-8.51-35.38-.2-70.75-.93-106.12-1.54-2.15,0-4.94.89-6.27-1.37-1.51-2.56,1.63-3.85,2.48-5.8,7-15.84,18-23.31,36.23-20.27,12.34,2.06,25.18,1.3,37.8,1.58,9.81.22,19.43-11.74,16.9-21.11-1.52-5.64-5.47-8.74-11.4-6.65-5.59,2-7.12-.77-8.06-5.32S268.06,929,267,924.37c3.88,1.18,7.39,1.75,11.05-1.37,14.71-12.54,16-39.16,5.35-52.25-6.73-8.32-16.36-6.55-20.17,3.62,7.73-.06,12.89,3.8,15.5,10.78C283.84,898.84,284.18,912.68,267.1,924.49Zm-67-152.1c3.42-5.79,1.61-11.93,1.56-17.91a2.75,2.75,0,0,0-2.83-2.83c-1.65.09-1.57,1.77-1.92,2.81C194.77,760.85,198.24,766.45,200.07,772.39Z" transform="translate(-40.92 -37.95)"/><path class="cls-3" d="M1056.07,774.32a40.13,40.13,0,0,1,6.36-19c4.19-6.53,14.91-6.34,19.21.3,7.13,11,7.68,22.5,1.18,34-5.46,9.7-15.28,10.08-21.76,1C1058.66,787.27,1056.11,779.31,1056.07,774.32Z" transform="translate(-40.92 -37.95)"/><path class="cls-2" d="M1026.6,776.78c-9-10.95-15.37-22.55-22.34-33.77-3.42-5.51-5.82-6-9.58,0-5.64,9.07-12.14,17.6-19,27.41,0-14.46,0-27.92,0-41.37,0-2.68,1.12-3.47,3.62-3.46,23.59,0,47.17,0,71.25,0C1039.29,740.6,1030.88,757.34,1026.6,776.78Z" transform="translate(-40.92 -37.95)"/><path class="cls-2" d="M912.62,1383.65a579.45,579.45,0,0,0-61.52,16.84c10-16.78,18.79-31.49,27.48-46.25,1.13-1.91,2.13-1.74,3.45-.45Z" transform="translate(-40.92 -37.95)"/><path class="cls-2" d="M464.42,1413.14q24.46,3.91,48.93,7.81c4.61.73,3.08,3.18,1.87,5.82-5.55,12.06-11,24.17-17.19,37.81C487.59,1446,475.6,1430,464.1,1413.5Z" transform="translate(-40.92 -37.95)"/><path class="cls-2" d="M1028.69,933.52c-12.29,9.28-16.73,21.26-11.64,36,2.83,8.16,7.68,14.64,17.67,14.49-3.7,10-13.49,11.7-20.5,3.87-12.57-14-9.14-43.47,6.1-54.23,3.21-2.26,5.68-.5,8.5,0Z" transform="translate(-40.92 -37.95)"/><path class="cls-2" d="M697.18,1502.64c1.67,5.87,3,11.43,2.06,17.66l-21.88-7.92Z" transform="translate(-40.92 -37.95)"/><path class="cls-2" d="M464.1,1413.5a6.06,6.06,0,0,1-.75-.77s.22-.32.35-.49l.72.9Z" transform="translate(-40.92 -37.95)"/><path class="cls-2" d="M267.1,924.49c17.08-11.81,16.74-25.65,11.62-39.34-2.61-7-7.77-10.84-15.5-10.78,3.81-10.17,13.44-11.94,20.17-3.62C294,883.84,292.75,910.46,278,923c-3.66,3.12-7.17,2.55-11.05,1.37Z" transform="translate(-40.92 -37.95)"/><path class="cls-2" d="M200.07,772.39c-1.83-5.94-5.3-11.54-3.19-17.93.35-1,.27-2.72,1.92-2.81a2.75,2.75,0,0,1,2.83,2.83C201.68,760.46,203.49,766.6,200.07,772.39Z" transform="translate(-40.92 -37.95)"/></svg>