<svg id="Layer_1" data-name="Layer 1" xmlns="http://www.w3.org/2000/svg" viewBox="0 0 80.24 83.66"><defs><style>.cls-1,.cls-2{fill:#fff;}.cls-1,.cls-6{fill-rule:evenodd;}.cls-3,.cls-4,.cls-5{font-size:3.69px;fill:#fdfefe;}.cls-10,.cls-11,.cls-12,.cls-13,.cls-3,.cls-4,.cls-5{font-family:Arial-BoldItalicMT, Arial;font-weight:700;font-style:italic;}.cls-4{letter-spacing:-0.04em;}.cls-5{letter-spacing:-0.02em;}.cls-6,.cls-7{fill:#ef4a23;}.cls-8{fill:#2b398f;}.cls-9{fill:none;stroke:#fff;stroke-width:0.7px;}.cls-10,.cls-11,.cls-12,.cls-13{font-size:2.72px;}.cls-10,.cls-11,.cls-12{fill:#050606;}.cls-11{letter-spacing:-0.04em;}.cls-12{letter-spacing:-0.02em;}.cls-13{fill:#231f20;}</style></defs><path class="cls-1" d="M86,31.25c2.42,1,3.79,2.13,3.79,3.32,0,4.07-15.78,7.36-35.25,7.36s-35.26-3.29-35.26-7.36c0-1.2,1.37-2.33,3.8-3.32h0c-3.17,1.12-5,2.43-5,3.84,0,4.2,16.31,7.6,36.44,7.6S91,39.29,91,35.09C91,33.69,89.19,32.38,86,31.25Zm-.06,0,.06,0,0,0Z" transform="translate(-10.76 -10.2)"/><path class="cls-2" d="M15,20.45a5.66,5.66,0,0,0-2.94.71,2.27,2.27,0,0,0,0,4.06,5.66,5.66,0,0,0,2.94.71h5.28a2.82,2.82,0,0,1,.91.13c.34.12.52.29.52.52s-.18.4-.52.53a2.59,2.59,0,0,1-.91.15H12.82l-2.06,2.37h9.49a5.63,5.63,0,0,0,3.14-.81,2.52,2.52,0,0,0,1.32-2.2,2.58,2.58,0,0,0-1.31-2.24,5.72,5.72,0,0,0-3.15-.82H15c-.39,0-.59-.12-.59-.37s.2-.37.59-.37H26.58v6.81h3.21V22.82h3.12L35,20.45H15" transform="translate(-10.76 -10.2)"/><polygon class="cls-2" points="38.52 20.33 38.13 22.36 40.45 22.36 39.24 28.61 41.55 28.61 42.76 22.36 45.18 22.36 45.56 20.33 38.52 20.33"/><polygon class="cls-2" points="52.3 22.11 52.64 20.33 46.55 20.33 44.96 28.61 51.36 28.61 51.73 26.72 47.63 26.72 47.94 25.1 51.58 25.1 51.91 23.42 48.27 23.42 48.52 22.11 52.3 22.11"/><path class="cls-2" d="M68.07,36.7a1.22,1.22,0,0,1-.89.37,1,1,0,0,1-.88-.42,1.7,1.7,0,0,1-.3-1A5.23,5.23,0,0,1,66.29,34a2.94,2.94,0,0,1,.78-1.27,1.53,1.53,0,0,1,1-.41,1.09,1.09,0,0,1,.72.29,1.19,1.19,0,0,1,.32.9v0l2.12-.26a3.19,3.19,0,0,0-1-2.07,3,3,0,0,0-2.22-.79,3.92,3.92,0,0,0-2.33.7A4.36,4.36,0,0,0,64.25,33a6.28,6.28,0,0,0-.51,2.44A3.66,3.66,0,0,0,64.59,38a3.12,3.12,0,0,0,2.46,1,3.58,3.58,0,0,0,2.51-.87,4.34,4.34,0,0,0,1.3-2.16l-2.15-.37A3.29,3.29,0,0,1,68.07,36.7Z" transform="translate(-10.76 -10.2)"/><polygon class="cls-2" points="67 20.33 66.42 23.25 63.93 23.25 64.49 20.33 62.18 20.33 60.58 28.61 62.91 28.61 63.55 25.24 66.04 25.24 65.4 28.61 67.71 28.61 69.31 20.33 67 20.33"/><path class="cls-2" d="M60.62,26.92a4.4,4.4,0,0,0,1.89-1.2A2.62,2.62,0,0,0,63.19,24a2.88,2.88,0,0,0-1.7-2.65,8.3,8.3,0,0,0-3.94-.81H44l1.63,2.35H57.85c1.36,0,2,.36,2,1.08a.89.89,0,0,1-.67.83,3.55,3.55,0,0,1-1.36.22h-9v4.68H52.1V27.37h4.44l3.15,2.31h4.69l-3.76-2.76" transform="translate(-10.76 -10.2)"/><path class="cls-2" d="M40.42,21.51a3.3,3.3,0,0,1-2.1-.23c-.83-.6-.85-.83-.85-.83,8.77-8.2,14.36-10.36,24.74-10.24h0c11.38.75,20,7.26,25.22,15C83,19.74,73.77,13,65,12.41c-9.45-.77-19.85,3-23.93,8.72Z" transform="translate(-10.76 -10.2)"/><polygon class="cls-2" points="31.09 19.56 30.66 17.31 32.52 15.69 29.95 15.37 28.78 13.27 27.57 15.37 24.96 15.69 26.87 17.33 26.43 19.55 26.39 19.55 19.86 19.55 26.72 10.25 30.86 10.25 37.62 19.57 31.09 19.57 31.09 19.56"/><polygon class="cls-2" points="30.52 18.89 30.2 17.2 31.61 15.96 29.66 15.72 28.77 14.13 27.86 15.72 25.87 15.96 27.32 17.21 26.99 18.89 27 18.89 28.74 18.12 30.52 18.89"/><text class="cls-3" transform="translate(38.75 35.94)">T</text><text class="cls-3" transform="translate(40.94 35.94)">O</text><text class="cls-3" transform="translate(43.81 35.94)">T</text><text class="cls-4" transform="translate(45.79 35.94)">A</text><text class="cls-5" transform="translate(48.46 35.94)">L</text><text class="cls-3" transform="translate(50.65 35.94)"><tspan xml:space="preserve"> IT SOLUTION</tspan></text><path class="cls-6" d="M84.55,79.69l.06,0,0,0Zm.06,0c2.25.93,3.51,2,3.51,3.09,0,3.77-14.66,6.83-32.74,6.83S22.63,86.57,22.63,82.8c0-1.12,1.27-2.17,3.53-3.09h0c-2.94,1-4.63,2.26-4.63,3.56,0,3.91,15.16,7.07,33.85,7.07s33.84-3.16,33.84-7.07C89.22,82,87.54,80.76,84.61,79.71Z" transform="translate(-10.76 -10.2)"/><path class="cls-7" d="M18.59,69.68a5.21,5.21,0,0,0-2.73.66,2.09,2.09,0,0,0,0,3.76,5.12,5.12,0,0,0,2.73.67h4.9a2.72,2.72,0,0,1,.85.12c.32.11.48.27.48.49s-.16.36-.48.48a2.24,2.24,0,0,1-.84.15H16.61L14.68,78.2H23.5a5.34,5.34,0,0,0,2.92-.74,2.34,2.34,0,0,0,1.22-2,2.41,2.41,0,0,0-1.21-2.08,5.25,5.25,0,0,0-2.93-.76H18.6c-.36,0-.55-.12-.55-.35s.19-.34.55-.34H29.39V78.2h3V71.88h2.9l1.94-2.2H18.59" transform="translate(-10.76 -10.2)"/><polygon class="cls-8" points="39.71 68.84 39.35 70.73 41.5 70.73 40.38 76.53 42.52 76.53 43.65 70.73 45.9 70.73 46.25 68.84 39.71 68.84"/><polygon class="cls-8" points="52.51 70.49 52.83 68.84 47.17 68.84 45.69 76.53 51.64 76.53 51.98 74.78 48.17 74.78 48.46 73.27 51.84 73.27 52.15 71.71 48.77 71.71 49 70.49 52.51 70.49"/><path class="cls-8" d="M67.92,84.77a1.1,1.1,0,0,1-.83.34,1,1,0,0,1-.81-.38,1.65,1.65,0,0,1-.28-1,4.76,4.76,0,0,1,.27-1.54A2.64,2.64,0,0,1,67,81.05a1.41,1.41,0,0,1,.92-.39,1,1,0,0,1,.67.28,1.07,1.07,0,0,1,.3.83v0l2-.24A3,3,0,0,0,70,79.64a2.89,2.89,0,0,0-2.07-.73,3.61,3.61,0,0,0-2.16.65,4.06,4.06,0,0,0-1.37,1.79,6,6,0,0,0-.47,2.27A3.4,3.4,0,0,0,64.69,86a2.92,2.92,0,0,0,2.29.89,3.34,3.34,0,0,0,2.33-.82,4,4,0,0,0,1.2-2l-2-.35A2.87,2.87,0,0,1,67.92,84.77Z" transform="translate(-10.76 -10.2)"/><polygon class="cls-8" points="66.17 68.84 65.62 71.56 63.31 71.56 63.84 68.84 61.69 68.84 60.2 76.53 62.37 76.53 62.95 73.4 65.27 73.4 64.67 76.53 66.82 76.53 68.31 68.84 66.17 68.84"/><path class="cls-8" d="M41.12,73.16c5.14-8.64,14.35-11.35,23.35-10.49,8.34.65,17.16,8.2,21.34,14.33-5-8.66-13.17-16-24-16.79h0A28.32,28.32,0,0,0,37.33,71.49s-1.73,2-.17,3.31,4-1.62,4-1.62" transform="translate(-10.76 -10.2)"/><path class="cls-7" d="M61,75.69a4,4,0,0,0,1.76-1.12A2.41,2.41,0,0,0,63.39,73a2.67,2.67,0,0,0-1.58-2.46,7.6,7.6,0,0,0-3.66-.76H45.56l1.51,2.19H58.43c1.26,0,1.89.33,1.89,1a.84.84,0,0,1-.63.77,3.25,3.25,0,0,1-1.26.21H50.11v4.34h3V76.1h4.12l2.93,2.15h4.35L61,75.69" transform="translate(-10.76 -10.2)"/><polyline class="cls-7" points="38.59 68.08 38.42 67.86 32.56 59.46 28.69 59.45 28.63 59.54 28.63 59.54 23.09 67.41 22.54 68.08 22.6 68.08 22.58 68.12 22.59 68.12 22.59 68.13 23.24 68.12 27.59 68.12 28.53 65.38 28.49 65.38 28.53 65.33 27.25 64.19 29.58 63.93 30.66 62.1 31.66 63.96 33.98 64.3 32.67 65.38 32.68 65.39 32.57 65.48 32.56 65.48 32.56 65.49 32.56 65.49 32.57 65.49 33.5 68.08 38.52 68.08 38.51 68.08 38.59 68.08"/><polygon class="cls-2" points="34.48 63.92 31.78 63.56 30.57 61.31 29.36 63.56 26.65 63.92 28.61 65.67 28.15 68.14 30.57 66.97 32.99 68.14 32.53 65.67 34.48 63.92"/><polygon class="cls-9" points="30.57 61.31 31.78 63.56 34.48 63.92 32.53 65.67 32.99 68.14 30.57 66.97 28.15 68.14 28.61 65.67 26.65 63.92 29.36 63.56 30.57 61.31"/><polygon class="cls-8" points="34.09 64 31.66 63.67 30.57 61.65 29.48 63.67 27.04 64 28.8 65.57 28.39 67.8 30.57 66.75 32.75 67.8 32.33 65.57 34.09 64"/><text class="cls-10" transform="translate(39.92 82.63)">T</text><text class="cls-10" transform="translate(41.53 82.63)">O</text><text class="cls-10" transform="translate(43.65 82.63)">T</text><text class="cls-11" transform="translate(45.11 82.63)">A</text><text class="cls-12" transform="translate(47.07 82.63)">L</text><text class="cls-13" transform="translate(48.68 82.63)"><tspan xml:space="preserve"> IT SOLUTION</tspan></text></svg>